<?xml version="1.0" encoding="UTF-8" standalone="no"?>
<svg
   xmlns:dc="http://purl.org/dc/elements/1.1/"
   xmlns:cc="http://creativecommons.org/ns#"
   xmlns:rdf="http://www.w3.org/1999/02/22-rdf-syntax-ns#"
   xmlns:svg="http://www.w3.org/2000/svg"
   xmlns="http://www.w3.org/2000/svg"
   xmlns:sodipodi="http://sodipodi.sourceforge.net/DTD/sodipodi-0.dtd"
   xmlns:inkscape="http://www.inkscape.org/namespaces/inkscape"
   version="1.1"
   viewBox="0 0 799.93598 362.13051"
   stroke-miterlimit="10"
   id="svg2"
   inkscape:version="0.48.4 r9939"
   width="100%"
   height="100%"
   sodipodi:docname="Underlag för KSF pres( Design Portfolio 2015)(2).svg"
   style="fill:none;stroke:none">
  <metadata
     id="metadata149">
    <rdf:RDF>
      <cc:Work
         rdf:about="">
        <dc:format>image/svg+xml</dc:format>
        <dc:type
           rdf:resource="http://purl.org/dc/dcmitype/StillImage" />
        <dc:title></dc:title>
      </cc:Work>
    </rdf:RDF>
  </metadata>
  <defs
     id="defs147" />
  <sodipodi:namedview
     pagecolor="#ffffff"
     bordercolor="#666666"
     borderopacity="1"
     objecttolerance="10"
     gridtolerance="10"
     guidetolerance="10"
     inkscape:pageopacity="0"
     inkscape:pageshadow="2"
     inkscape:window-width="1366"
     inkscape:window-height="744"
     id="namedview145"
     showgrid="false"
     fit-margin-top="0"
     fit-margin-left="0"
     fit-margin-right="0"
     fit-margin-bottom="0"
     inkscape:zoom="1.6185885"
     inkscape:cx="404.29734"
     inkscape:cy="204.52689"
     inkscape:window-x="0"
     inkscape:window-y="24"
     inkscape:window-maximized="1"
     inkscape:current-layer="svg2" />
  <clipPath
     id="gc43dcb860_0_40.0">
    <path
       d="m 0,0 793.7008,0 0,1122.5197 L 0,1122.5197 0,0 z"
       clip-rule="nonzero"
       id="path5"
       inkscape:connector-curvature="0" />
  </clipPath>
  <path
     style="fill:#000000;fill-opacity:0;fill-rule:nonzero"
     inkscape:connector-curvature="0"
     id="path11"
     d="m 186.61202,192.14139 547.0551,0" />
  <path
     style="stroke:#ffffff;stroke-width:2;stroke-linecap:butt;stroke-linejoin:round"
     inkscape:connector-curvature="0"
     id="path13"
     d="m 186.61202,192.14139 535.0551,0" />
  <path
     style="fill:#ffffff;fill-rule:evenodd;stroke:#ffffff;stroke-width:2;stroke-linecap:butt"
     inkscape:connector-curvature="0"
     id="path15"
     d="m 721.66713,195.44485 9.07617,-3.30347 -9.07617,-3.30346 z" />
  <path
     style="fill:#000000;fill-opacity:0;fill-rule:nonzero"
     inkscape:connector-curvature="0"
     id="path17"
     d="m 162.01568,198.19675 115.96851,0 0,69.35437 -115.96851,0 z" />
  <path
     style="fill:#ffffff;fill-rule:nonzero"
     inkscape:connector-curvature="0"
     id="path19"
     d="m 173.73443,223.81992 2.9375,0 0,-9.28125 q 0,-0.40625 0.0312,-0.84375 l -2.4375,2.07812 q -0.0937,0.0781 -0.1875,0.10938 -0.0937,0.0312 -0.1875,0.0312 -0.14062,0 -0.25,-0.0469 -0.10937,-0.0625 -0.17187,-0.15625 l -0.53125,-0.73437 4.04687,-3.5 1.375,0 0,12.34375 2.67188,0 0,1.29687 -7.29688,0 0,-1.29687 z m 13.32063,-4.29688 q -0.76562,0 -1.46875,-0.25 -0.6875,-0.25 -1.20312,-0.75 -0.51563,-0.5 -0.82813,-1.21875 -0.3125,-0.73437 -0.3125,-1.67187 0,-0.90625 0.32813,-1.67188 0.34375,-0.78125 0.9375,-1.35937 0.59375,-0.57813 1.42187,-0.90625 0.82813,-0.34375 1.8125,-0.34375 0.98438,0 1.78125,0.32812 0.79688,0.3125 1.35938,0.90625 0.57812,0.57813 0.875,1.39063 0.3125,0.79687 0.3125,1.78125 0,0.57812 -0.10938,1.10937 -0.10937,0.53125 -0.3125,1.03125 -0.20312,0.5 -0.5,1 -0.28125,0.5 -0.65625,1.03125 l -3.3125,4.78125 q -0.125,0.1875 -0.35937,0.29688 -0.21875,0.10937 -0.51563,0.10937 l -1.5625,0 4.14063,-5.42187 q 0.21875,-0.28125 0.39062,-0.51563 0.1875,-0.25 0.34375,-0.5 -0.51562,0.42188 -1.17187,0.64063 -0.65625,0.20312 -1.39063,0.20312 z m 3.39063,-3.96875 q 0,-0.64062 -0.20313,-1.15625 -0.20312,-0.51562 -0.5625,-0.875 -0.35937,-0.35937 -0.85937,-0.54687 -0.5,-0.20313 -1.09375,-0.20313 -0.625,0 -1.14063,0.20313 -0.51562,0.20312 -0.89062,0.5625 -0.35938,0.35937 -0.5625,0.85937 -0.20313,0.5 -0.20313,1.10938 0,0.64062 0.1875,1.15625 0.1875,0.5 0.53125,0.85937 0.34375,0.34375 0.84375,0.53125 0.5,0.17188 1.125,0.17188 0.67188,0 1.20313,-0.21875 0.53125,-0.21875 0.89062,-0.59375 0.35938,-0.375 0.54688,-0.85938 0.1875,-0.48437 0.1875,-1 z m 7.43001,3.96875 q -0.76563,0 -1.46875,-0.25 -0.6875,-0.25 -1.20313,-0.75 -0.51562,-0.5 -0.82812,-1.21875 -0.3125,-0.73437 -0.3125,-1.67187 0,-0.90625 0.32812,-1.67188 0.34375,-0.78125 0.9375,-1.35937 0.59375,-0.57813 1.42188,-0.90625 0.82812,-0.34375 1.8125,-0.34375 0.98437,0 1.78125,0.32812 0.79687,0.3125 1.35937,0.90625 0.57813,0.57813 0.875,1.39063 0.3125,0.79687 0.3125,1.78125 0,0.57812 -0.10937,1.10937 -0.10938,0.53125 -0.3125,1.03125 -0.20313,0.5 -0.5,1 -0.28125,0.5 -0.65625,1.03125 l -3.3125,4.78125 q -0.125,0.1875 -0.35938,0.29688 -0.21875,0.10937 -0.51562,0.10937 l -1.5625,0 4.14062,-5.42187 q 0.21875,-0.28125 0.39063,-0.51563 0.1875,-0.25 0.34375,-0.5 -0.51563,0.42188 -1.17188,0.64063 -0.65625,0.20312 -1.39062,0.20312 z m 3.39062,-3.96875 q 0,-0.64062 -0.20312,-1.15625 -0.20313,-0.51562 -0.5625,-0.875 -0.35938,-0.35937 -0.85938,-0.54687 -0.5,-0.20313 -1.09375,-0.20313 -0.625,0 -1.14062,0.20313 -0.51563,0.20312 -0.89063,0.5625 -0.35937,0.35937 -0.5625,0.85937 -0.20312,0.5 -0.20312,1.10938 0,0.64062 0.1875,1.15625 0.1875,0.5 0.53125,0.85937 0.34375,0.34375 0.84375,0.53125 0.5,0.17188 1.125,0.17188 0.67187,0 1.20312,-0.21875 0.53125,-0.21875 0.89063,-0.59375 0.35937,-0.375 0.54687,-0.85938 0.1875,-0.48437 0.1875,-1 z m 8.10188,-4.20312 q 0.85938,0 1.59375,0.25 0.73438,0.25 1.25,0.70312 0.53125,0.45313 0.82813,1.10938 0.29687,0.64062 0.29687,1.42187 0,0.64063 -0.17187,1.15625 -0.15625,0.51563 -0.46875,0.90625 -0.3125,0.375 -0.75,0.64063 -0.4375,0.26562 -0.96875,0.42187 1.32812,0.35938 2,1.1875 0.67187,0.8125 0.67187,2.0625 0,0.9375 -0.35937,1.6875 -0.35938,0.75 -0.98438,1.28125 -0.60937,0.53125 -1.4375,0.8125 -0.8125,0.28125 -1.75,0.28125 -1.09375,0 -1.85937,-0.26562 -0.76563,-0.28125 -1.29688,-0.75 -0.53125,-0.48438 -0.875,-1.125 -0.34375,-0.65625 -0.57812,-1.42188 l 0.71875,-0.29687 q 0.20312,-0.0937 0.39062,-0.0937 0.20313,0 0.34375,0.0937 0.14063,0.0781 0.21875,0.25 0.0156,0.0312 0.0312,0.0781 0.0312,0.0469 0.0469,0.0937 0.14062,0.26563 0.32812,0.625 0.1875,0.34375 0.5,0.65625 0.32813,0.29688 0.8125,0.5 0.48438,0.20313 1.1875,0.20313 0.71875,0 1.25,-0.21875 0.54688,-0.23438 0.89063,-0.60938 0.35937,-0.375 0.53125,-0.82812 0.1875,-0.45313 0.1875,-0.90625 0,-0.54688 -0.15625,-1 -0.14063,-0.45313 -0.53125,-0.78125 -0.375,-0.34375 -1.0625,-0.53125 -0.67188,-0.1875 -1.73438,-0.1875 l 0,-1.23438 q 0.875,0 1.48438,-0.1875 0.60937,-0.1875 1,-0.5 0.39062,-0.3125 0.5625,-0.75 0.17187,-0.4375 0.17187,-0.96875 0,-0.57812 -0.1875,-1.01562 -0.17187,-0.4375 -0.5,-0.71875 -0.32812,-0.29688 -0.76562,-0.4375 -0.4375,-0.14063 -0.95313,-0.14063 -0.51562,0 -0.95312,0.15625 -0.4375,0.14063 -0.78125,0.42188 -0.32813,0.26562 -0.5625,0.64062 -0.21875,0.375 -0.34375,0.8125 -0.0625,0.28125 -0.21875,0.40625 -0.15625,0.125 -0.39063,0.125 -0.0469,0 -0.10937,0 -0.0469,-0.0156 -0.10938,-0.0312 l -0.89062,-0.14062 q 0.14062,-0.9375 0.51562,-1.65625 0.39063,-0.71875 0.96875,-1.20313 0.57813,-0.48437 1.32813,-0.73437 0.76562,-0.25 1.64062,-0.25 z" />
  <path
     style="fill:#000000;fill-opacity:0;fill-rule:nonzero"
     inkscape:connector-curvature="0"
     id="path21"
     d="m 336.09188,198.54075 115.96851,0 0,69.35437 -115.96851,0 z" />
  <path
     style="fill:#ffffff;fill-rule:nonzero"
     inkscape:connector-curvature="0"
     id="path23"
     d="m 350.795,211.69515 q 0.875,0 1.625,0.26562 0.75,0.25 1.29688,0.73438 0.54687,0.48437 0.85937,1.1875 0.3125,0.70312 0.3125,1.60937 0,0.75 -0.23437,1.40625 -0.21875,0.64063 -0.60938,1.23438 -0.39062,0.59375 -0.90625,1.15625 -0.5,0.54687 -1.07812,1.125 l -3.57813,3.67187 q 0.375,-0.10937 0.76563,-0.17187 0.39062,-0.0625 0.75,-0.0625 l 4.5625,0 q 0.28125,0 0.4375,0.17187 0.15625,0.15625 0.15625,0.40625 l 0,1.03125 -9.07813,0 0,-0.57812 q 0,-0.1875 0.0625,-0.375 0.0781,-0.1875 0.25,-0.34375 l 4.35938,-4.39063 q 0.53125,-0.54687 0.98437,-1.04687 0.45313,-0.51563 0.76563,-1.03125 0.3125,-0.51563 0.48437,-1.03125 0.17188,-0.53125 0.17188,-1.125 0,-0.60938 -0.1875,-1.04688 -0.1875,-0.45312 -0.53125,-0.75 -0.32813,-0.29687 -0.78125,-0.4375 -0.4375,-0.15625 -0.95313,-0.15625 -0.51562,0 -0.95312,0.15625 -0.42188,0.14063 -0.76563,0.42188 -0.34375,0.26562 -0.57812,0.64062 -0.21875,0.375 -0.3125,0.8125 -0.0781,0.28125 -0.23438,0.40625 -0.15625,0.125 -0.40625,0.125 -0.0469,0 -0.0937,0 -0.0469,-0.0156 -0.125,-0.0312 l -0.875,-0.14062 q 0.125,-0.9375 0.5,-1.65625 0.39063,-0.71875 0.96875,-1.20313 0.59375,-0.48437 1.34375,-0.73437 0.75,-0.25 1.625,-0.25 z m 15.57065,6.96875 q 0,1.78125 -0.39063,3.09375 -0.375,1.29687 -1.04687,2.15625 -0.67188,0.85937 -1.57813,1.28125 -0.90625,0.40625 -1.9375,0.40625 -1.04687,0 -1.95312,-0.40625 -0.89063,-0.42188 -1.5625,-1.28125 -0.65625,-0.85938 -1.04688,-2.15625 -0.375,-1.3125 -0.375,-3.09375 0,-1.79688 0.375,-3.09375 0.39063,-1.3125 1.04688,-2.17188 0.67187,-0.85937 1.5625,-1.28125 0.90625,-0.42187 1.95312,-0.42187 1.03125,0 1.9375,0.42187 0.90625,0.42188 1.57813,1.28125 0.67187,0.85938 1.04687,2.17188 0.39063,1.29687 0.39063,3.09375 z m -1.76563,0 q 0,-1.5625 -0.26562,-2.625 -0.25,-1.0625 -0.70313,-1.70313 -0.4375,-0.64062 -1.01562,-0.92187 -0.57813,-0.28125 -1.20313,-0.28125 -0.625,0 -1.20312,0.28125 -0.57813,0.28125 -1.01563,0.92187 -0.4375,0.64063 -0.70312,1.70313 -0.26563,1.0625 -0.26563,2.625 0,1.54687 0.26563,2.60937 0.26562,1.04688 0.70312,1.70313 0.4375,0.64062 1.01563,0.92187 0.57812,0.28125 1.20312,0.28125 0.625,0 1.20313,-0.28125 0.57812,-0.28125 1.01562,-0.92187 0.45313,-0.65625 0.70313,-1.70313 0.26562,-1.0625 0.26562,-2.60937 z m 12.58625,0 q 0,1.78125 -0.39063,3.09375 -0.375,1.29687 -1.04687,2.15625 -0.67188,0.85937 -1.57813,1.28125 -0.90625,0.40625 -1.9375,0.40625 -1.04687,0 -1.95312,-0.40625 -0.89063,-0.42188 -1.5625,-1.28125 -0.65625,-0.85938 -1.04688,-2.15625 -0.375,-1.3125 -0.375,-3.09375 0,-1.79688 0.375,-3.09375 0.39063,-1.3125 1.04688,-2.17188 0.67187,-0.85937 1.5625,-1.28125 0.90625,-0.42187 1.95312,-0.42187 1.03125,0 1.9375,0.42187 0.90625,0.42188 1.57813,1.28125 0.67187,0.85938 1.04687,2.17188 0.39063,1.29687 0.39063,3.09375 z m -1.76563,0 q 0,-1.5625 -0.26562,-2.625 -0.25,-1.0625 -0.70313,-1.70313 -0.4375,-0.64062 -1.01562,-0.92187 -0.57813,-0.28125 -1.20313,-0.28125 -0.625,0 -1.20312,0.28125 -0.57813,0.28125 -1.01563,0.92187 -0.4375,0.64063 -0.70312,1.70313 -0.26563,1.0625 -0.26563,2.625 0,1.54687 0.26563,2.60937 0.26562,1.04688 0.70312,1.70313 0.4375,0.64062 1.01563,0.92187 0.57812,0.28125 1.20312,0.28125 0.625,0 1.20313,-0.28125 0.57812,-0.28125 1.01562,-0.92187 0.45313,-0.65625 0.70313,-1.70313 0.26562,-1.0625 0.26562,-2.60937 z m 12.58627,0 q 0,1.78125 -0.39062,3.09375 -0.375,1.29687 -1.04688,2.15625 -0.67187,0.85937 -1.57812,1.28125 -0.90625,0.40625 -1.9375,0.40625 -1.04688,0 -1.95313,-0.40625 -0.89062,-0.42188 -1.5625,-1.28125 -0.65625,-0.85938 -1.04687,-2.15625 -0.375,-1.3125 -0.375,-3.09375 0,-1.79688 0.375,-3.09375 0.39062,-1.3125 1.04687,-2.17188 0.67188,-0.85937 1.5625,-1.28125 0.90625,-0.42187 1.95313,-0.42187 1.03125,0 1.9375,0.42187 0.90625,0.42188 1.57812,1.28125 0.67188,0.85938 1.04688,2.17188 0.39062,1.29687 0.39062,3.09375 z m -1.76562,0 q 0,-1.5625 -0.26563,-2.625 -0.25,-1.0625 -0.70312,-1.70313 -0.4375,-0.64062 -1.01563,-0.92187 -0.57812,-0.28125 -1.20312,-0.28125 -0.625,0 -1.20313,0.28125 -0.57812,0.28125 -1.01562,0.92187 -0.4375,0.64063 -0.70313,1.70313 -0.26562,1.0625 -0.26562,2.625 0,1.54687 0.26562,2.60937 0.26563,1.04688 0.70313,1.70313 0.4375,0.64062 1.01562,0.92187 0.57813,0.28125 1.20313,0.28125 0.625,0 1.20312,-0.28125 0.57813,-0.28125 1.01563,-0.92187 0.45312,-0.65625 0.70312,-1.70313 0.26563,-1.0625 0.26563,-2.60937 z" />
  <path
     style="fill:#000000;fill-opacity:0;fill-rule:nonzero"
     inkscape:connector-curvature="0"
     id="path25"
     d="m 512.65883,198.54075 115.96851,0 0,69.35437 -115.96851,0 z" />
  <path
     style="fill:#ffffff;fill-rule:nonzero"
     inkscape:connector-curvature="0"
     id="path27"
     d="m 527.36198,211.69515 q 0.875,0 1.625,0.26562 0.75,0.25 1.29687,0.73438 0.54688,0.48437 0.85938,1.1875 0.3125,0.70312 0.3125,1.60937 0,0.75 -0.23438,1.40625 -0.21875,0.64063 -0.60937,1.23438 -0.39063,0.59375 -0.90625,1.15625 -0.5,0.54687 -1.07813,1.125 l -3.57812,3.67187 q 0.375,-0.10937 0.76562,-0.17187 0.39063,-0.0625 0.75,-0.0625 l 4.5625,0 q 0.28125,0 0.4375,0.17187 0.15625,0.15625 0.15625,0.40625 l 0,1.03125 -9.07812,0 0,-0.57812 q 0,-0.1875 0.0625,-0.375 0.0781,-0.1875 0.25,-0.34375 l 4.35937,-4.39063 q 0.53125,-0.54687 0.98438,-1.04687 0.45312,-0.51563 0.76562,-1.03125 0.3125,-0.51563 0.48438,-1.03125 0.17187,-0.53125 0.17187,-1.125 0,-0.60938 -0.1875,-1.04688 -0.1875,-0.45312 -0.53125,-0.75 -0.32812,-0.29687 -0.78125,-0.4375 -0.4375,-0.15625 -0.95312,-0.15625 -0.51563,0 -0.95313,0.15625 -0.42187,0.14063 -0.76562,0.42188 -0.34375,0.26562 -0.57813,0.64062 -0.21875,0.375 -0.3125,0.8125 -0.0781,0.28125 -0.23437,0.40625 -0.15625,0.125 -0.40625,0.125 -0.0469,0 -0.0937,0 -0.0469,-0.0156 -0.125,-0.0312 l -0.875,-0.14062 q 0.125,-0.9375 0.5,-1.65625 0.39062,-0.71875 0.96875,-1.20313 0.59375,-0.48437 1.34375,-0.73437 0.75,-0.25 1.625,-0.25 z m 15.57062,6.96875 q 0,1.78125 -0.39063,3.09375 -0.375,1.29687 -1.04687,2.15625 -0.67188,0.85937 -1.57813,1.28125 -0.90625,0.40625 -1.9375,0.40625 -1.04687,0 -1.95312,-0.40625 -0.89063,-0.42188 -1.5625,-1.28125 -0.65625,-0.85938 -1.04688,-2.15625 -0.375,-1.3125 -0.375,-3.09375 0,-1.79688 0.375,-3.09375 0.39063,-1.3125 1.04688,-2.17188 0.67187,-0.85937 1.5625,-1.28125 0.90625,-0.42187 1.95312,-0.42187 1.03125,0 1.9375,0.42187 0.90625,0.42188 1.57813,1.28125 0.67187,0.85938 1.04687,2.17188 0.39063,1.29687 0.39063,3.09375 z m -1.76563,0 q 0,-1.5625 -0.26562,-2.625 -0.25,-1.0625 -0.70313,-1.70313 -0.4375,-0.64062 -1.01562,-0.92187 -0.57813,-0.28125 -1.20313,-0.28125 -0.625,0 -1.20312,0.28125 -0.57813,0.28125 -1.01563,0.92187 -0.4375,0.64063 -0.70312,1.70313 -0.26563,1.0625 -0.26563,2.625 0,1.54687 0.26563,2.60937 0.26562,1.04688 0.70312,1.70313 0.4375,0.64062 1.01563,0.92187 0.57812,0.28125 1.20312,0.28125 0.625,0 1.20313,-0.28125 0.57812,-0.28125 1.01562,-0.92187 0.45313,-0.65625 0.70313,-1.70313 0.26562,-1.0625 0.26562,-2.60937 z m 12.58625,0 q 0,1.78125 -0.39063,3.09375 -0.375,1.29687 -1.04687,2.15625 -0.67188,0.85937 -1.57813,1.28125 -0.90625,0.40625 -1.9375,0.40625 -1.04687,0 -1.95312,-0.40625 -0.89063,-0.42188 -1.5625,-1.28125 -0.65625,-0.85938 -1.04688,-2.15625 -0.375,-1.3125 -0.375,-3.09375 0,-1.79688 0.375,-3.09375 0.39063,-1.3125 1.04688,-2.17188 0.67187,-0.85937 1.5625,-1.28125 0.90625,-0.42187 1.95312,-0.42187 1.03125,0 1.9375,0.42187 0.90625,0.42188 1.57813,1.28125 0.67187,0.85938 1.04687,2.17188 0.39063,1.29687 0.39063,3.09375 z m -1.76563,0 q 0,-1.5625 -0.26562,-2.625 -0.25,-1.0625 -0.70313,-1.70313 -0.4375,-0.64062 -1.01562,-0.92187 -0.57813,-0.28125 -1.20313,-0.28125 -0.625,0 -1.20312,0.28125 -0.57813,0.28125 -1.01563,0.92187 -0.4375,0.64063 -0.70312,1.70313 -0.26563,1.0625 -0.26563,2.625 0,1.54687 0.26563,2.60937 0.26562,1.04688 0.70312,1.70313 0.4375,0.64062 1.01563,0.92187 0.57812,0.28125 1.20312,0.28125 0.625,0 1.20313,-0.28125 0.57812,-0.28125 1.01562,-0.92187 0.45313,-0.65625 0.70313,-1.70313 0.26562,-1.0625 0.26562,-2.60937 z m 7.63312,6.95312 q -1.01563,0 -1.85938,-0.26562 -0.84375,-0.28125 -1.45312,-0.78125 -0.60938,-0.5 -0.95313,-1.21875 -0.32812,-0.71875 -0.32812,-1.60938 0,-1.3125 0.6875,-2.15625 0.6875,-0.85937 1.95312,-1.21875 -1.0625,-0.40625 -1.60937,-1.1875 -0.54688,-0.79687 -0.54688,-1.90625 0,-0.75 0.28125,-1.40625 0.29688,-0.65625 0.84375,-1.14062 0.54688,-0.48438 1.29688,-0.75 0.75,-0.28125 1.6875,-0.28125 0.92187,0 1.67187,0.28125 0.76563,0.26562 1.3125,0.75 0.54688,0.48437 0.82813,1.14062 0.29687,0.65625 0.29687,1.40625 0,1.10938 -0.54687,1.90625 -0.54688,0.78125 -1.60938,1.1875 1.26563,0.35938 1.95313,1.21875 0.6875,0.84375 0.6875,2.15625 0,0.89063 -0.34375,1.60938 -0.32813,0.71875 -0.9375,1.21875 -0.60938,0.5 -1.45313,0.78125 -0.84375,0.26562 -1.85937,0.26562 z m 0,-1.35937 q 0.67187,0 1.1875,-0.17188 0.53125,-0.1875 0.89062,-0.51562 0.375,-0.34375 0.5625,-0.8125 0.20313,-0.48438 0.20313,-1.04688 0,-0.70312 -0.23438,-1.20312 -0.23437,-0.5 -0.625,-0.8125 -0.39062,-0.3125 -0.90625,-0.45313 -0.51562,-0.15625 -1.07812,-0.15625 -0.5625,0 -1.07813,0.15625 -0.51562,0.14063 -0.90625,0.45313 -0.39062,0.3125 -0.625,0.8125 -0.23437,0.5 -0.23437,1.20312 0,0.5625 0.1875,1.04688 0.20312,0.46875 0.5625,0.8125 0.375,0.32812 0.89062,0.51562 0.53125,0.17188 1.20313,0.17188 z m 0,-6.53125 q 0.67187,0 1.14062,-0.20313 0.46875,-0.20312 0.75,-0.53125 0.29688,-0.34375 0.4375,-0.78125 0.14063,-0.4375 0.14063,-0.90625 0,-0.46875 -0.17188,-0.89062 -0.15625,-0.42188 -0.46875,-0.73438 -0.29687,-0.3125 -0.76562,-0.48437 -0.45313,-0.1875 -1.0625,-0.1875 -0.60938,0 -1.07813,0.1875 -0.45312,0.17187 -0.76562,0.48437 -0.29688,0.3125 -0.45313,0.73438 -0.15625,0.42187 -0.15625,0.89062 0,0.46875 0.125,0.90625 0.14063,0.4375 0.42188,0.78125 0.29687,0.32813 0.76562,0.53125 0.46875,0.20313 1.14063,0.20313 z" />
  <path
     style="fill:#000000;fill-opacity:0;fill-rule:nonzero"
     inkscape:connector-curvature="0"
     id="path29"
     d="m 683.96748,198.54075 115.96851,0 0,69.35437 -115.96851,0 z" />
  <path
     style="fill:#ffffff;fill-rule:nonzero"
     inkscape:connector-curvature="0"
     id="path31"
     d="m 698.67061,211.69515 q 0.875,0 1.625,0.26562 0.75,0.25 1.29687,0.73438 0.54688,0.48437 0.85938,1.1875 0.3125,0.70312 0.3125,1.60937 0,0.75 -0.23438,1.40625 -0.21875,0.64063 -0.60937,1.23438 -0.39063,0.59375 -0.90625,1.15625 -0.5,0.54687 -1.07813,1.125 l -3.57812,3.67187 q 0.375,-0.10937 0.76562,-0.17187 0.39063,-0.0625 0.75,-0.0625 l 4.5625,0 q 0.28125,0 0.4375,0.17187 0.15625,0.15625 0.15625,0.40625 l 0,1.03125 -9.07812,0 0,-0.57812 q 0,-0.1875 0.0625,-0.375 0.0781,-0.1875 0.25,-0.34375 l 4.35937,-4.39063 q 0.53125,-0.54687 0.98438,-1.04687 0.45312,-0.51563 0.76562,-1.03125 0.3125,-0.51563 0.48438,-1.03125 0.17187,-0.53125 0.17187,-1.125 0,-0.60938 -0.1875,-1.04688 -0.1875,-0.45312 -0.53125,-0.75 -0.32812,-0.29687 -0.78125,-0.4375 -0.4375,-0.15625 -0.95312,-0.15625 -0.51563,0 -0.95313,0.15625 -0.42187,0.14063 -0.76562,0.42188 -0.34375,0.26562 -0.57813,0.64062 -0.21875,0.375 -0.3125,0.8125 -0.0781,0.28125 -0.23437,0.40625 -0.15625,0.125 -0.40625,0.125 -0.0469,0 -0.0937,0 -0.0469,-0.0156 -0.125,-0.0312 l -0.875,-0.14062 q 0.125,-0.9375 0.5,-1.65625 0.39062,-0.71875 0.96875,-1.20313 0.59375,-0.48437 1.34375,-0.73437 0.75,-0.25 1.625,-0.25 z m 15.57062,6.96875 q 0,1.78125 -0.39063,3.09375 -0.375,1.29687 -1.04687,2.15625 -0.67188,0.85937 -1.57813,1.28125 -0.90625,0.40625 -1.9375,0.40625 -1.04687,0 -1.95312,-0.40625 -0.89063,-0.42188 -1.5625,-1.28125 -0.65625,-0.85938 -1.04688,-2.15625 -0.375,-1.3125 -0.375,-3.09375 0,-1.79688 0.375,-3.09375 0.39063,-1.3125 1.04688,-2.17188 0.67187,-0.85937 1.5625,-1.28125 0.90625,-0.42187 1.95312,-0.42187 1.03125,0 1.9375,0.42187 0.90625,0.42188 1.57813,1.28125 0.67187,0.85938 1.04687,2.17188 0.39063,1.29687 0.39063,3.09375 z m -1.76563,0 q 0,-1.5625 -0.26562,-2.625 -0.25,-1.0625 -0.70313,-1.70313 -0.4375,-0.64062 -1.01562,-0.92187 -0.57813,-0.28125 -1.20313,-0.28125 -0.625,0 -1.20312,0.28125 -0.57813,0.28125 -1.01563,0.92187 -0.4375,0.64063 -0.70312,1.70313 -0.26563,1.0625 -0.26563,2.625 0,1.54687 0.26563,2.60937 0.26562,1.04688 0.70312,1.70313 0.4375,0.64062 1.01563,0.92187 0.57812,0.28125 1.20312,0.28125 0.625,0 1.20313,-0.28125 0.57812,-0.28125 1.01562,-0.92187 0.45313,-0.65625 0.70313,-1.70313 0.26562,-1.0625 0.26562,-2.60937 z m 4.85193,5.5 2.9375,0 0,-9.28125 q 0,-0.40625 0.0312,-0.84375 l -2.4375,2.07812 q -0.0937,0.0781 -0.1875,0.10938 -0.0937,0.0312 -0.1875,0.0312 -0.14062,0 -0.25,-0.0469 -0.10937,-0.0625 -0.17187,-0.15625 l -0.53125,-0.73437 4.04687,-3.5 1.375,0 0,12.34375 2.67188,0 0,1.29687 -7.29688,0 0,-1.29687 z m 17.39874,-11.57813 q 0,0.35938 -0.23437,0.59375 -0.23438,0.23438 -0.76563,0.23438 l -4.28125,0 -0.625,3.57812 q 1.0625,-0.23437 1.96875,-0.23437 1.0625,0 1.875,0.3125 0.8125,0.3125 1.35938,0.875 0.5625,0.54687 0.82812,1.29687 0.28125,0.75 0.28125,1.625 0,1.09375 -0.375,1.96875 -0.375,0.875 -1.04687,1.5 -0.65625,0.60938 -1.54688,0.95313 -0.89062,0.32812 -1.92187,0.32812 -0.60938,0 -1.15625,-0.125 -0.54688,-0.10937 -1.03125,-0.3125 -0.46875,-0.20312 -0.875,-0.45312 -0.40625,-0.26563 -0.71875,-0.54688 l 0.5,-0.71875 q 0.17187,-0.25 0.46875,-0.25 0.17187,0 0.40625,0.15625 0.25,0.14063 0.59375,0.32813 0.34375,0.17187 0.79687,0.32812 0.46875,0.14063 1.10938,0.14063 0.70312,0 1.26562,-0.21875 0.57813,-0.23438 0.98438,-0.65625 0.40625,-0.4375 0.625,-1.01563 0.21875,-0.59375 0.21875,-1.32812 0,-0.64063 -0.1875,-1.14063 -0.1875,-0.51562 -0.5625,-0.875 -0.375,-0.35937 -0.9375,-0.5625 -0.5625,-0.20312 -1.3125,-0.20312 -0.5,0 -1.0625,0.0937 -0.54688,0.0781 -1.14063,0.26562 l -1.0625,-0.3125 1.10938,-6.35937 6.45312,0 0,0.73437 z" />
  <path
     style="fill:#000000;fill-opacity:0;fill-rule:nonzero"
     inkscape:connector-curvature="0"
     id="path33"
     d="M 219.99518,182.19675 219.0188,69.53537" />
  <path
     style="stroke:#ffffff;stroke-width:1;stroke-linecap:butt;stroke-linejoin:round;stroke-dasharray:4, 3"
     inkscape:connector-curvature="0"
     id="path35"
     d="M 219.99518,182.19675 219.0188,69.53537" />
  <path
     style="fill:#000000;fill-opacity:0;fill-rule:nonzero"
     inkscape:connector-curvature="0"
     id="path37"
     d="m 159.99999,20.24378 118.29923,0 0,41.63779 -118.29923,0 z" />
  <path
     style="fill:#ffffff;fill-rule:nonzero"
     inkscape:connector-curvature="0"
     id="path39"
     d="m 197.41465,37.13251 0.0469,1.10937 q 1.10938,-1.29687 2.98438,-1.29687 2.10937,0 2.85937,1.60937 0.51563,-0.71875 1.3125,-1.15625 0.79688,-0.45312 1.89063,-0.45312 3.3125,0 3.35937,3.5 l 0,6.71875 -1.71875,0 0,-6.625 q 0,-1.07813 -0.5,-1.60938 -0.48437,-0.53125 -1.64062,-0.53125 -0.95313,0 -1.59375,0.57813 -0.625,0.5625 -0.71875,1.53125 l 0,6.65625 -1.73438,0 0,-6.57813 q 0,-2.1875 -2.14062,-2.1875 -1.6875,0 -2.3125,1.4375 l 0,7.32813 -1.70313,0 0,-10.03125 1.60938,0 z m 18.91405,10.21875 q -2.04688,0 -3.32813,-1.34375 -1.28125,-1.34375 -1.28125,-3.57813 l 0,-0.32812 q 0,-1.48438 0.5625,-2.65625 0.57813,-1.17188 1.59375,-1.82813 1.03125,-0.67187 2.23438,-0.67187 1.95312,0 3.03125,1.29687 1.09375,1.28125 1.09375,3.6875 l 0,0.70313 -6.79688,0 q 0.0312,1.48437 0.85938,2.40625 0.84375,0.90625 2.125,0.90625 0.90625,0 1.53125,-0.35938 0.64062,-0.375 1.10937,-0.98437 l 1.04688,0.8125 q -1.26563,1.9375 -3.78125,1.9375 z m -0.21875,-9 q -1.03125,0 -1.75,0.76562 -0.70313,0.75 -0.85938,2.10938 l 5.01563,0 0,-0.125 q -0.0625,-1.3125 -0.70313,-2.03125 -0.625,-0.71875 -1.70312,-0.71875 z m 8.25882,-3.65625 0,2.4375 1.875,0 0,1.3125 -1.875,0 0,6.23437 q 0,0.59375 0.25,0.90625 0.25,0.29688 0.85937,0.29688 0.29688,0 0.8125,-0.10938 l 0,1.39063 q -0.67187,0.1875 -1.3125,0.1875 -1.15626,0 -1.75001,-0.6875 Q 222.65,45.96063 222.65,44.67938 l 0,-6.23437 -1.82812,0 0,-1.3125 1.82812,0 0,-2.4375 1.71877,0 z m 8.6255,3.96875 q -0.39062,-0.0625 -0.84375,-0.0625 -1.6875,0 -2.29687,1.4375 l 0,7.125 -1.71875,0 0,-10.03125 1.67187,0 0.0312,1.15625 q 0.84375,-1.34375 2.39063,-1.34375 0.5,0 0.76562,0.125 l 0,1.59375 z m 1.00038,3.39062 q 0,-1.48437 0.57813,-2.65625 0.57812,-1.17187 1.60937,-1.8125 1.04688,-0.64062 2.375,-0.64062 2.04688,0 3.3125,1.42187 1.26563,1.40625 1.26563,3.76563 l 0,0.125 q 0,1.46875 -0.5625,2.64062 -0.5625,1.15625 -1.60938,1.8125 -1.04687,0.64063 -2.39062,0.64063 -2.04688,0 -3.3125,-1.42188 -1.26563,-1.42187 -1.26563,-3.75 l 0,-0.125 z m 1.71875,0.20313 q 0,1.67187 0.78125,2.6875 0.78125,1 2.07813,1 1.29687,0 2.0625,-1.01563 0.78125,-1.03125 0.78125,-2.875 0,-1.65625 -0.78125,-2.67187 -0.78125,-1.03125 -2.07813,-1.03125 -1.28125,0 -2.0625,1.01562 -0.78125,1 -0.78125,2.89063 z" />
  <path
     style="fill:#000000;fill-opacity:0;fill-rule:nonzero"
     inkscape:connector-curvature="0"
     id="path41"
     d="M 253.03191,309.96365 252.05553,197.30227" />
  <path
     style="stroke:#ffffff;stroke-width:1;stroke-linecap:butt;stroke-linejoin:round;stroke-dasharray:4, 3"
     inkscape:connector-curvature="0"
     id="path43"
     d="M 253.03191,309.96365 252.05553,197.30227" />
  <path
     style="fill:#000000;fill-opacity:0;fill-rule:nonzero"
     inkscape:connector-curvature="0"
     id="path45"
     d="m 194.32165,309.25742 118.29923,0 0,41.63776 -118.29923,0 z" />
  <path
     style="fill:#ffffff;fill-rule:nonzero"
     inkscape:connector-curvature="0"
     id="path47"
     d="m 216.10772,334.95865 q 0.92187,0 1.59375,-0.54688 0.6875,-0.5625 0.76562,-1.39062 l 1.625,0 q -0.0469,0.85937 -0.59375,1.64062 -0.54687,0.76563 -1.46875,1.23438 -0.90625,0.46875 -1.92187,0.46875 -2.04688,0 -3.26563,-1.35938 -1.20312,-1.375 -1.20312,-3.75 l 0,-0.29687 q 0,-1.46875 0.53125,-2.60938 0.54687,-1.14062 1.54687,-1.76562 1,-0.625 2.375,-0.625 1.6875,0 2.79688,1.01562 1.125,1 1.20312,2.60938 l -1.625,0 q -0.0781,-0.96875 -0.73437,-1.59375 -0.65625,-0.625 -1.64063,-0.625 -1.29687,0 -2.03125,0.9375 -0.71875,0.9375 -0.71875,2.71875 l 0,0.32812 q 0,1.73438 0.71875,2.67188 0.71875,0.9375 2.04688,0.9375 z m 7.59351,1.21875 -1.70313,0 0,-10.03125 1.70313,0 0,10.03125 z m -1.84375,-12.70313 q 0,-0.42187 0.25,-0.70312 0.25,-0.28125 0.75,-0.28125 0.51562,0 0.76562,0.28125 0.26563,0.28125 0.26563,0.70312 0,0.42188 -0.26563,0.70313 -0.25,0.26562 -0.76562,0.26562 -0.5,0 -0.75,-0.26562 -0.25,-0.28125 -0.25,-0.70313 z m 6.13679,2.67188 0.0625,1.25 q 1.14063,-1.4375 3,-1.4375 3.1875,0 3.20313,3.57812 l 0,6.64063 -1.70313,0 0,-6.64063 q -0.0156,-1.09375 -0.5,-1.60937 -0.48437,-0.51563 -1.51562,-0.51563 -0.84375,0 -1.46875,0.45313 -0.625,0.4375 -0.98438,1.15625 l 0,7.15625 -1.71875,0 0,-10.03125 1.625,0 z m 12.84061,10.21875 q -2.04688,0 -3.32813,-1.34375 -1.28125,-1.34375 -1.28125,-3.57813 l 0,-0.32812 q 0,-1.48438 0.5625,-2.65625 0.57813,-1.17188 1.59375,-1.82813 1.03125,-0.67187 2.23438,-0.67187 1.95312,0 3.03125,1.29687 1.09375,1.28125 1.09375,3.6875 l 0,0.70313 -6.79688,0 q 0.0312,1.48437 0.85938,2.40625 0.84375,0.90625 2.125,0.90625 0.90625,0 1.53125,-0.35938 0.64062,-0.375 1.10937,-0.98437 l 1.04688,0.8125 q -1.26563,1.9375 -3.78125,1.9375 z m -0.21875,-9 q -1.03125,0 -1.75,0.76562 -0.70313,0.75 -0.85938,2.10938 l 5.01563,0 0,-0.125 q -0.0625,-1.3125 -0.70313,-2.03125 -0.625,-0.71875 -1.70312,-0.71875 z m 7.54005,-1.21875 0.0469,1.10937 q 1.10937,-1.29687 2.98437,-1.29687 2.10938,0 2.85938,1.60937 0.51562,-0.71875 1.3125,-1.15625 0.79687,-0.45312 1.89062,-0.45312 3.3125,0 3.35938,3.5 l 0,6.71875 -1.71875,0 0,-6.625 q 0,-1.07813 -0.5,-1.60938 -0.48438,-0.53125 -1.64063,-0.53125 -0.95312,0 -1.59375,0.57813 -0.625,0.5625 -0.71875,1.53125 l 0,6.65625 -1.73437,0 0,-6.57813 q 0,-2.1875 -2.14063,-2.1875 -1.6875,0 -2.3125,1.4375 l 0,7.32813 -1.70312,0 0,-10.03125 1.60937,0 z m 20.94528,10.03125 q -0.15625,-0.29688 -0.25,-1.0625 -1.1875,1.25 -2.85937,1.25 -1.48438,0 -2.4375,-0.84375 -0.9375,-0.84375 -0.9375,-2.125 0,-1.5625 1.1875,-2.4375 1.1875,-0.875 3.35937,-0.875 l 1.67188,0 0,-0.78125 q 0,-0.90625 -0.54688,-1.4375 -0.53125,-0.53125 -1.57812,-0.53125 -0.92188,0 -1.54688,0.46875 -0.625,0.46875 -0.625,1.125 l -1.71875,0 q 0,-0.75 0.53125,-1.45313 0.53125,-0.70312 1.4375,-1.10937 0.92188,-0.40625 2.01563,-0.40625 1.73437,0 2.71875,0.875 0.98437,0.85937 1.01562,2.375 l 0,4.625 q 0,1.375 0.35938,2.1875 l 0,0.15625 -1.79688,0 z m -2.85937,-1.3125 q 0.8125,0 1.53125,-0.40625 0.73437,-0.42188 1.0625,-1.09375 l 0,-2.0625 -1.35938,0 q -3.14062,0 -3.14062,1.84375 0,0.8125 0.53125,1.26562 0.53125,0.45313 1.375,0.45313 z m 6.8511,0.40625 q 0,-0.4375 0.25,-0.73438 0.26563,-0.29687 0.79688,-0.29687 0.53125,0 0.79687,0.29687 0.28125,0.29688 0.28125,0.73438 0,0.4375 -0.28125,0.73437 -0.26562,0.28125 -0.79687,0.28125 -0.53125,0 -0.79688,-0.28125 -0.25,-0.29687 -0.25,-0.73437 z m 10.70691,-1.75 q 0,-0.70313 -0.53125,-1.07813 -0.51562,-0.39062 -1.82812,-0.67187 -1.29688,-0.28125 -2.0625,-0.67188 -0.76563,-0.39062 -1.14063,-0.92187 -0.35937,-0.54688 -0.35937,-1.28125 0,-1.23438 1.04687,-2.07813 1.04688,-0.85937 2.67188,-0.85937 1.70312,0 2.76562,0.875 1.0625,0.875 1.0625,2.25 l -1.71875,0 q 0,-0.70313 -0.60937,-1.20313 -0.59375,-0.51562 -1.5,-0.51562 -0.9375,0 -1.46875,0.40625 -0.53125,0.40625 -0.53125,1.0625 0,0.625 0.48437,0.9375 0.5,0.3125 1.78125,0.60937 1.29688,0.28125 2.09375,0.6875 0.79688,0.39063 1.17188,0.95313 0.39062,0.5625 0.39062,1.375 0,1.34375 -1.07812,2.15625 -1.07813,0.8125 -2.79688,0.8125 -1.20312,0 -2.125,-0.42188 -0.92187,-0.4375 -1.45312,-1.20312 -0.53125,-0.76563 -0.53125,-1.65625 l 1.71875,0 q 0.0469,0.85937 0.6875,1.375 0.65625,0.5 1.70312,0.5 0.98438,0 1.5625,-0.39063 0.59375,-0.39062 0.59375,-1.04687 z m 7.94776,2.84375 q -2.04688,0 -3.32813,-1.34375 -1.28125,-1.34375 -1.28125,-3.57813 l 0,-0.32812 q 0,-1.48438 0.5625,-2.65625 0.57813,-1.17188 1.59375,-1.82813 1.03125,-0.67187 2.23438,-0.67187 1.95312,0 3.03125,1.29687 1.09375,1.28125 1.09375,3.6875 l 0,0.70313 -6.79688,0 q 0.0312,1.48437 0.85938,2.40625 0.84375,0.90625 2.125,0.90625 0.90625,0 1.53125,-0.35938 0.64062,-0.375 1.10937,-0.98437 l 1.04688,0.8125 q -1.26563,1.9375 -3.78125,1.9375 z m -0.21875,-9 q -1.03125,0 -1.75,0.76562 -0.70313,0.75 -0.85938,2.10938 l 5.01563,0 0,-0.125 q -0.0625,-1.3125 -0.70313,-2.03125 -0.625,-0.71875 -1.70312,-0.71875 z" />
  <path
     style="fill:#000000;fill-opacity:0;fill-rule:nonzero"
     inkscape:connector-curvature="0"
     id="path49"
     d="M 327.80095,186.08652 326.82457,73.42511" />
  <path
     style="stroke:#ffffff;stroke-width:1;stroke-linecap:butt;stroke-linejoin:round;stroke-dasharray:4, 3"
     inkscape:connector-curvature="0"
     id="path51"
     d="M 327.80095,186.08652 326.82457,73.42511" />
  <path
     style="fill:#000000;fill-opacity:0;fill-rule:nonzero"
     inkscape:connector-curvature="0"
     id="path53"
     d="m 268.2141,0 118.29922,0 0,41.63779 -118.29922,0 z" />
  <path
     style="fill:#ffffff;fill-rule:nonzero"
     inkscape:connector-curvature="0"
     id="path55"
     d="m 292.53753,14.45125 0,2.4375 1.875,0 0,1.3125 -1.875,0 0,6.23437 q 0,0.59375 0.25,0.90625 0.25,0.29688 0.85938,0.29688 0.29687,0 0.8125,-0.10938 l 0,1.39063 q -0.67188,0.1875 -1.3125,0.1875 -1.15625,0 -1.75,-0.6875 -0.57813,-0.70313 -0.57813,-1.98438 l 0,-6.23437 -1.82812,0 0,-1.3125 1.82812,0 0,-2.4375 1.71875,0 z m 5.62552,12.46875 -1.70313,0 0,-10.03125 1.70313,0 0,10.03125 z M 296.3193,14.21687 q 0,-0.42187 0.25,-0.70312 0.25,-0.28125 0.75,-0.28125 0.51562,0 0.76562,0.28125 0.26563,0.28125 0.26563,0.70312 0,0.42188 -0.26563,0.70313 -0.25,0.26562 -0.76562,0.26562 -0.5,0 -0.75,-0.26562 -0.25,-0.28125 -0.25,-0.70313 z m 4.0899,7.59375 q 0,-2.29687 1.09375,-3.70312 1.10938,-1.40625 2.875,-1.40625 1.76563,0 2.79688,1.20312 l 0,-5.23437 1.71875,0 0,14.25 -1.57813,0 -0.0937,-1.07813 q -1.03125,1.26563 -2.85937,1.26563 -1.75,0 -2.85938,-1.42188 -1.09375,-1.4375 -1.09375,-3.73437 l 0,-0.14063 z m 1.71875,0.20313 q 0,1.70312 0.70313,2.67187 0.71875,0.96875 1.95312,0.96875 1.64063,0 2.39063,-1.46875 l 0,-4.60937 q -0.78125,-1.42188 -2.375,-1.42188 -1.25,0 -1.96875,0.98438 -0.70313,0.96875 -0.70313,2.875 z m 10.84961,-5.125 0.0625,1.25 q 1.14063,-1.4375 3,-1.4375 3.1875,0 3.20313,3.57812 l 0,6.64063 -1.70313,0 0,-6.64063 q -0.0156,-1.09375 -0.5,-1.60937 -0.48437,-0.51563 -1.51562,-0.51563 -0.84375,0 -1.46875,0.45313 -0.625,0.4375 -0.98438,1.15625 l 0,7.15625 -1.71875,0 0,-10.03125 1.625,0 z m 10.52811,10.03125 -1.70313,0 0,-10.03125 1.70313,0 0,10.03125 z m -1.84375,-12.70313 q 0,-0.42187 0.25,-0.70312 0.25,-0.28125 0.75,-0.28125 0.51562,0 0.76562,0.28125 0.26563,0.28125 0.26563,0.70312 0,0.42188 -0.26563,0.70313 -0.25,0.26562 -0.76562,0.26562 -0.5,0 -0.75,-0.26562 -0.25,-0.28125 -0.25,-0.70313 z m 6.13678,2.67188 0.0625,1.25 q 1.14062,-1.4375 3,-1.4375 3.1875,0 3.20312,3.57812 l 0,6.64063 -1.70312,0 0,-6.64063 q -0.0156,-1.09375 -0.5,-1.60937 -0.48438,-0.51563 -1.51563,-0.51563 -0.84375,0 -1.46875,0.45313 -0.625,0.4375 -0.98437,1.15625 l 0,7.15625 -1.71875,0 0,-10.03125 1.625,0 z m 8.26248,4.92187 q 0,-2.34375 1.07813,-3.71875 1.09375,-1.39062 2.89062,-1.39062 1.82813,0 2.85938,1.29687 l 0.0781,-1.10937 1.57813,0 0,9.79687 q 0,1.9375 -1.15625,3.0625 -1.15625,1.125 -3.10938,1.125 -1.07812,0 -2.125,-0.46875 -1.03125,-0.45312 -1.57812,-1.26562 l 0.89062,-1.03125 q 1.09375,1.35937 2.6875,1.35937 1.26563,0 1.95313,-0.70312 0.70312,-0.70313 0.70312,-1.98438 l 0,-0.85937 q -1.03125,1.1875 -2.8125,1.1875 -1.75,0 -2.84375,-1.42188 -1.09375,-1.42187 -1.09375,-3.875 z m 1.71875,0.20313 q 0,1.70312 0.70313,2.67187 0.70312,0.96875 1.95312,0.96875 1.625,0 2.375,-1.48437 l 0,-4.57813 q -0.78125,-1.4375 -2.35937,-1.4375 -1.25,0 -1.96875,0.98438 -0.70313,0.96875 -0.70313,2.875 z m 13.3262,5.09375 q -2.04687,0 -3.32812,-1.34375 -1.28125,-1.34375 -1.28125,-3.57813 l 0,-0.32812 q 0,-1.48438 0.5625,-2.65625 0.57812,-1.17188 1.59375,-1.82813 1.03125,-0.67187 2.23437,-0.67187 1.95313,0 3.03125,1.29687 1.09375,1.28125 1.09375,3.6875 l 0,0.70313 -6.79687,0 q 0.0312,1.48437 0.85937,2.40625 0.84375,0.90625 2.125,0.90625 0.90625,0 1.53125,-0.35938 0.64063,-0.375 1.10938,-0.98437 l 1.04687,0.8125 q -1.26562,1.9375 -3.78125,1.9375 z m -0.21875,-9 q -1.03125,0 -1.75,0.76562 -0.70312,0.75 -0.85937,2.10938 l 5.01562,0 0,-0.125 q -0.0625,-1.3125 -0.70312,-2.03125 -0.625,-0.71875 -1.70313,-0.71875 z m 7.55567,-1.21875 0.0625,1.25 q 1.14062,-1.4375 3,-1.4375 3.1875,0 3.20312,3.57812 l 0,6.64063 -1.70312,0 0,-6.64063 q -0.0156,-1.09375 -0.5,-1.60937 -0.48438,-0.51563 -1.51563,-0.51563 -0.84375,0 -1.46875,0.45313 -0.625,0.4375 -0.98437,1.15625 l 0,7.15625 -1.71875,0 0,-10.03125 1.625,0 z" />
  <path
     style="fill:#ffffff;fill-rule:nonzero"
     inkscape:connector-curvature="0"
     id="path57"
     d="m 317.22445,44.01375 q 0,2.29687 -1.0625,3.70312 -1.04688,1.39063 -2.82813,1.39063 -1.90625,0 -2.95312,-1.34375 l -0.0781,1.15625 -1.57812,0 0,-14.25 1.71875,0 0,5.3125 q 1.03125,-1.28125 2.85937,-1.28125 1.82813,0 2.875,1.39062 1.04688,1.375 1.04688,3.76563 l 0,0.15625 z m -1.71875,-0.20313 q 0,-1.75 -0.6875,-2.70312 -0.67188,-0.95313 -1.9375,-0.95313 -1.70313,0 -2.4375,1.57813 l 0,4.34375 q 0.78125,1.57812 2.45312,1.57812 1.23438,0 1.92188,-0.95312 0.6875,-0.96875 0.6875,-2.89063 z m 5.54495,5.10938 -1.70312,0 0,-10.03125 1.70312,0 0,10.03125 z M 319.2069,36.21687 q 0,-0.42187 0.25,-0.70312 0.25,-0.28125 0.75,-0.28125 0.51563,0 0.76563,0.28125 0.26562,0.28125 0.26562,0.70312 0,0.42188 -0.26562,0.70313 -0.25,0.26562 -0.76563,0.26562 -0.5,0 -0.75,-0.26562 -0.25,-0.28125 -0.25,-0.70313 z m 13.01178,7.79688 q 0,2.29687 -1.0625,3.70312 -1.04687,1.39063 -2.82812,1.39063 -1.90625,0 -2.95313,-1.34375 l -0.0781,1.15625 -1.57813,0 0,-14.25 1.71875,0 0,5.3125 q 1.03125,-1.28125 2.85938,-1.28125 1.82812,0 2.875,1.39062 1.04687,1.375 1.04687,3.76563 l 0,0.15625 z m -1.71875,-0.20313 q 0,-1.75 -0.6875,-2.70312 -0.67187,-0.95313 -1.9375,-0.95313 -1.70312,0 -2.4375,1.57813 l 0,4.34375 q 0.78125,1.57812 2.45313,1.57812 1.23437,0 1.92187,-0.95312 0.6875,-0.96875 0.6875,-2.89063 z m 7.85745,5.29688 q -2.04687,0 -3.32812,-1.34375 -1.28125,-1.34375 -1.28125,-3.57813 l 0,-0.32812 q 0,-1.48438 0.5625,-2.65625 0.57812,-1.17188 1.59375,-1.82813 1.03125,-0.67187 2.23437,-0.67187 1.95313,0 3.03125,1.29687 1.09375,1.28125 1.09375,3.6875 l 0,0.70313 -6.79687,0 q 0.0312,1.48437 0.85937,2.40625 0.84375,0.90625 2.125,0.90625 0.90625,0 1.53125,-0.35938 0.64063,-0.375 1.10938,-0.98437 l 1.04687,0.8125 q -1.26562,1.9375 -3.78125,1.9375 z m -0.21875,-9 q -1.03125,0 -1.75,0.76562 -0.70312,0.75 -0.85937,2.10938 l 5.01562,0 0,-0.125 q -0.0625,-1.3125 -0.70312,-2.03125 -0.625,-0.71875 -1.70313,-0.71875 z m 7.79004,8.8125 -1.70312,0 0,-14.25 1.70312,0 0,14.25 z" />
  <path
     style="fill:#000000;fill-opacity:0;fill-rule:nonzero"
     inkscape:connector-curvature="0"
     id="path59"
     d="M 445.03191,309.96365 444.05553,197.30227" />
  <path
     style="stroke:#ffffff;stroke-width:1;stroke-linecap:butt;stroke-linejoin:round;stroke-dasharray:4, 3"
     inkscape:connector-curvature="0"
     id="path61"
     d="M 445.03191,309.96365 444.05553,197.30227" />
  <path
     style="fill:#000000;fill-opacity:0;fill-rule:nonzero"
     inkscape:connector-curvature="0"
     id="path63"
     d="m 380.21352,309.25742 130.83466,0 0,41.63776 -130.83466,0 z" />
  <path
     style="fill:#ffffff;fill-rule:nonzero"
     inkscape:connector-curvature="0"
     id="path65"
     d="m 403.41051,331.27115 q 0,2.29687 -1.04688,3.70312 -1.04687,1.39063 -2.84375,1.39063 -1.82812,0 -2.875,-1.15625 l 0,4.82812 -1.71875,0 0,-13.89062 1.5625,0 0.0937,1.10937 q 1.04688,-1.29687 2.90625,-1.29687 1.8125,0 2.85938,1.35937 1.0625,1.35938 1.0625,3.79688 l 0,0.15625 z m -1.71875,-0.20313 q 0,-1.6875 -0.73438,-2.67187 -0.71875,-0.98438 -1.96875,-0.98438 -1.5625,0 -2.34375,1.375 l 0,4.79688 q 0.76563,1.375 2.35938,1.375 1.23437,0 1.95312,-0.96875 0.73438,-0.98438 0.73438,-2.92188 z m 8.56058,-3.39062 q -0.39063,-0.0625 -0.84375,-0.0625 -1.6875,0 -2.29688,1.4375 l 0,7.125 -1.71875,0 0,-10.03125 1.67188,0 0.0312,1.15625 q 0.84375,-1.34375 2.39062,-1.34375 0.5,0 0.76563,0.125 l 0,1.59375 z m 1.00036,3.39062 q 0,-1.48437 0.57813,-2.65625 0.57812,-1.17187 1.60937,-1.8125 1.04688,-0.64062 2.375,-0.64062 2.04688,0 3.3125,1.42187 1.26563,1.40625 1.26563,3.76563 l 0,0.125 q 0,1.46875 -0.5625,2.64062 -0.5625,1.15625 -1.60938,1.8125 -1.04687,0.64063 -2.39062,0.64063 -2.04688,0 -3.3125,-1.42188 -1.26563,-1.42187 -1.26563,-3.75 l 0,-0.125 z m 1.71875,0.20313 q 0,1.67187 0.78125,2.6875 0.78125,1 2.07813,1 1.29687,0 2.0625,-1.01563 0.78125,-1.03125 0.78125,-2.875 0,-1.65625 -0.78125,-2.67187 -0.78125,-1.03125 -2.07813,-1.03125 -1.28125,0 -2.0625,1.01562 -0.78125,1 -0.78125,2.89063 z m 8.9524,-0.20313 q 0,-2.29687 1.09375,-3.70312 1.10937,-1.40625 2.875,-1.40625 1.76562,0 2.79687,1.20312 l 0,-5.23437 1.71875,0 0,14.25 -1.57812,0 -0.0937,-1.07813 q -1.03125,1.26563 -2.85938,1.26563 -1.75,0 -2.85937,-1.42188 -1.09375,-1.4375 -1.09375,-3.73437 l 0,-0.14063 z m 1.71875,0.20313 q 0,1.70312 0.70312,2.67187 0.71875,0.96875 1.95313,0.96875 1.64062,0 2.39062,-1.46875 l 0,-4.60937 q -0.78125,-1.42188 -2.375,-1.42188 -1.25,0 -1.96875,0.98438 -0.70312,0.96875 -0.70312,2.875 z m 15.42773,3.90625 q -1,1.1875 -2.9375,1.1875 -1.60937,0 -2.45312,-0.92188 -0.84375,-0.9375 -0.84375,-2.76562 l 0,-6.53125 1.71875,0 0,6.48437 q 0,2.28125 1.84375,2.28125 1.96875,0 2.625,-1.46875 l 0,-7.29687 1.71875,0 0,10.03125 -1.64063,0 -0.0312,-1 z m 6.87836,-3.64063 -1.0625,1.10938 0,3.53125 -1.71875,0 0,-14.25 1.71875,0 0,8.625 0.90625,-1.10938 3.125,-3.29687 2.09375,0 -3.90625,4.1875 4.35937,5.84375 -2.01562,0 -3.5,-4.64063 z m 8.98691,-7.82812 0,2.4375 1.875,0 0,1.3125 -1.875,0 0,6.23437 q 0,0.59375 0.25,0.90625 0.25,0.29688 0.85937,0.29688 0.29688,0 0.8125,-0.10938 l 0,1.39063 q -0.67187,0.1875 -1.3125,0.1875 -1.15625,0 -1.75,-0.6875 -0.57812,-0.70313 -0.57812,-1.98438 l 0,-6.23437 -1.82813,0 0,-1.3125 1.82813,0 0,-2.4375 1.71875,0 z m 5.62551,12.46875 -1.70312,0 0,-10.03125 1.70312,0 0,10.03125 z m -1.84375,-12.70313 q 0,-0.42187 0.25,-0.70312 0.25,-0.28125 0.75,-0.28125 0.51563,0 0.76563,0.28125 0.26562,0.28125 0.26562,0.70312 0,0.42188 -0.26562,0.70313 -0.25,0.26562 -0.76563,0.26562 -0.5,0 -0.75,-0.26562 -0.25,-0.28125 -0.25,-0.70313 z m 4.05866,7.59375 q 0,-1.48437 0.57812,-2.65625 0.57813,-1.17187 1.60938,-1.8125 1.04687,-0.64062 2.375,-0.64062 2.04687,0 3.3125,1.42187 1.26562,1.40625 1.26562,3.76563 l 0,0.125 q 0,1.46875 -0.5625,2.64062 -0.5625,1.15625 -1.60937,1.8125 -1.04688,0.64063 -2.39063,0.64063 -2.04687,0 -3.3125,-1.42188 -1.26562,-1.42187 -1.26562,-3.75 l 0,-0.125 z m 1.71875,0.20313 q 0,1.67187 0.78125,2.6875 0.78125,1 2.07812,1 1.29688,0 2.0625,-1.01563 0.78125,-1.03125 0.78125,-2.875 0,-1.65625 -0.78125,-2.67187 -0.78125,-1.03125 -2.07812,-1.03125 -1.28125,0 -2.0625,1.01562 -0.78125,1 -0.78125,2.89063 z m 10.99927,-5.125 0.0625,1.25 q 1.14062,-1.4375 3,-1.4375 3.1875,0 3.20312,3.57812 l 0,6.64063 -1.70312,0 0,-6.64063 q -0.0156,-1.09375 -0.5,-1.60937 -0.48438,-0.51563 -1.51563,-0.51563 -0.84375,0 -1.46875,0.45313 -0.625,0.4375 -0.98437,1.15625 l 0,7.15625 -1.71875,0 0,-10.03125 1.625,0 z m 14.51248,7.375 q 0,-0.70313 -0.53125,-1.07813 -0.51563,-0.39062 -1.82813,-0.67187 -1.29687,-0.28125 -2.0625,-0.67188 -0.76562,-0.39062 -1.14062,-0.92187 -0.35938,-0.54688 -0.35938,-1.28125 0,-1.23438 1.04688,-2.07813 1.04687,-0.85937 2.67187,-0.85937 1.70313,0 2.76563,0.875 1.0625,0.875 1.0625,2.25 l -1.71875,0 q 0,-0.70313 -0.60938,-1.20313 -0.59375,-0.51562 -1.5,-0.51562 -0.9375,0 -1.46875,0.40625 -0.53125,0.40625 -0.53125,1.0625 0,0.625 0.48438,0.9375 0.5,0.3125 1.78125,0.60937 1.29687,0.28125 2.09375,0.6875 0.79687,0.39063 1.17187,0.95313 0.39063,0.5625 0.39063,1.375 0,1.34375 -1.07813,2.15625 -1.07812,0.8125 -2.79687,0.8125 -1.20313,0 -2.125,-0.42188 -0.92188,-0.4375 -1.45313,-1.20312 -0.53125,-0.76563 -0.53125,-1.65625 l 1.71875,0 q 0.0469,0.85937 0.6875,1.375 0.65625,0.5 1.70313,0.5 0.98437,0 1.5625,-0.39063 0.59375,-0.39062 0.59375,-1.04687 z m 7.354,-2.375 -4.53125,0 0,-1.40625 4.53125,0 0,1.40625 z" />
  <path
     style="fill:#ffffff;fill-rule:nonzero"
     inkscape:connector-curvature="0"
     id="path67"
     d="m 432.30324,353.27115 q 0,2.29687 -1.0625,3.70312 -1.04687,1.39063 -2.82812,1.39063 -1.90625,0 -2.95313,-1.34375 l -0.0781,1.15625 -1.57813,0 0,-14.25 1.71875,0 0,5.3125 q 1.03125,-1.28125 2.85938,-1.28125 1.82812,0 2.875,1.39062 1.04687,1.375 1.04687,3.76563 l 0,0.15625 z m -1.71875,-0.20313 q 0,-1.75 -0.6875,-2.70312 -0.67187,-0.95313 -1.9375,-0.95313 -1.70312,0 -2.4375,1.57813 l 0,4.34375 q 0.78125,1.57812 2.45313,1.57812 1.23437,0 1.92187,-0.95312 0.6875,-0.96875 0.6875,-2.89063 z m 3.23245,0 q 0,-1.48437 0.57813,-2.65625 0.57812,-1.17187 1.60937,-1.8125 1.04688,-0.64062 2.375,-0.64062 2.04688,0 3.3125,1.42187 1.26563,1.40625 1.26563,3.76563 l 0,0.125 q 0,1.46875 -0.5625,2.64062 -0.5625,1.15625 -1.60938,1.8125 -1.04687,0.64063 -2.39062,0.64063 -2.04688,0 -3.3125,-1.42188 -1.26563,-1.42187 -1.26563,-3.75 l 0,-0.125 z m 1.71875,0.20313 q 0,1.67187 0.78125,2.6875 0.78125,1 2.07813,1 1.29687,0 2.0625,-1.01563 0.78125,-1.03125 0.78125,-2.875 0,-1.65625 -0.78125,-2.67187 -0.78125,-1.03125 -2.07813,-1.03125 -1.28125,0 -2.0625,1.01562 -0.78125,1 -0.78125,2.89063 z m 11.23365,4.90625 -1.70313,0 0,-14.25 1.70313,0 0,14.25 z m 8.87115,0 q -0.15625,-0.29688 -0.25,-1.0625 -1.1875,1.25 -2.85937,1.25 -1.48438,0 -2.4375,-0.84375 -0.9375,-0.84375 -0.9375,-2.125 0,-1.5625 1.1875,-2.4375 1.1875,-0.875 3.35937,-0.875 l 1.67188,0 0,-0.78125 q 0,-0.90625 -0.54688,-1.4375 -0.53125,-0.53125 -1.57812,-0.53125 -0.92188,0 -1.54688,0.46875 -0.625,0.46875 -0.625,1.125 l -1.71875,0 q 0,-0.75 0.53125,-1.45313 0.53125,-0.70312 1.4375,-1.10937 0.92188,-0.40625 2.01563,-0.40625 1.73437,0 2.71875,0.875 0.98437,0.85937 1.01562,2.375 l 0,4.625 q 0,1.375 0.35938,2.1875 l 0,0.15625 -1.79688,0 z m -2.85937,-1.3125 q 0.8125,0 1.53125,-0.40625 0.73437,-0.42188 1.0625,-1.09375 l 0,-2.0625 -1.35938,0 q -3.14062,0 -3.14062,1.84375 0,0.8125 0.53125,1.26562 0.53125,0.45313 1.375,0.45313 z m 6.39798,-3.79688 q 0,-2.34375 1.07812,-3.71875 1.09375,-1.39062 2.89063,-1.39062 1.82812,0 2.85937,1.29687 l 0.0781,-1.10937 1.57812,0 0,9.79687 q 0,1.9375 -1.15625,3.0625 -1.15625,1.125 -3.10937,1.125 -1.07813,0 -2.125,-0.46875 -1.03125,-0.45312 -1.57813,-1.26562 l 0.89063,-1.03125 q 1.09375,1.35937 2.6875,1.35937 1.26562,0 1.95312,-0.70312 0.70313,-0.70313 0.70313,-1.98438 l 0,-0.85937 q -1.03125,1.1875 -2.8125,1.1875 -1.75,0 -2.84375,-1.42188 -1.09375,-1.42187 -1.09375,-3.875 z m 1.71875,0.20313 q 0,1.70312 0.70312,2.67187 0.70313,0.96875 1.95313,0.96875 1.625,0 2.375,-1.48437 l 0,-4.57813 q -0.78125,-1.4375 -2.35938,-1.4375 -1.25,0 -1.96875,0.98438 -0.70312,0.96875 -0.70312,2.875 z" />
  <path
     style="fill:#000000;fill-opacity:0;fill-rule:nonzero"
     inkscape:connector-curvature="0"
     id="path69"
     d="M 542.85448,185.14005 541.8781,72.47864" />
  <path
     style="stroke:#ffffff;stroke-width:1;stroke-linecap:butt;stroke-linejoin:round;stroke-dasharray:4, 3"
     inkscape:connector-curvature="0"
     id="path71"
     d="M 542.85448,185.14005 541.8781,72.47864" />
  <path
     style="fill:#000000;fill-opacity:0;fill-rule:nonzero"
     inkscape:connector-curvature="0"
     id="path73"
     d="m 483.26766,19.2973 118.29919,0 0,41.63779 -118.29919,0 z" />
  <path
     style="fill:#ffffff;fill-rule:nonzero"
     inkscape:connector-curvature="0"
     id="path75"
     d="m 532.87268,41.31105 q 0,2.29687 -1.04688,3.70312 -1.04687,1.39063 -2.84375,1.39063 -1.82812,0 -2.875,-1.15625 l 0,4.82812 -1.71875,0 0,-13.89062 1.5625,0 0.0937,1.10937 q 1.04688,-1.29687 2.90625,-1.29687 1.8125,0 2.85938,1.35937 1.0625,1.35938 1.0625,3.79688 l 0,0.15625 z m -1.71875,-0.20313 q 0,-1.6875 -0.73438,-2.67187 -0.71875,-0.98438 -1.96875,-0.98438 -1.5625,0 -2.34375,1.375 l 0,4.79688 q 0.76563,1.375 2.35938,1.375 1.23437,0 1.95312,-0.96875 0.73438,-0.98438 0.73438,-2.92188 z m 5.56055,5.10938 -1.70313,0 0,-10.03125 1.70313,0 0,10.03125 z m -1.84375,-12.70313 q 0,-0.42187 0.25,-0.70312 0.25,-0.28125 0.75,-0.28125 0.51562,0 0.76562,0.28125 0.26563,0.28125 0.26563,0.70312 0,0.42188 -0.26563,0.70313 -0.25,0.26562 -0.76562,0.26562 -0.5,0 -0.75,-0.26562 -0.25,-0.28125 -0.25,-0.70313 z m 7.88684,6.32813 2.21875,-3.65625 2,0 -3.28125,4.95312 3.39062,5.07813 -1.98437,0 -2.32813,-3.75 -2.3125,3.75 -2,0 3.39063,-5.07813 -3.28125,-4.95312 1.98437,0 2.20313,3.65625 z m 10.04297,6.5625 q -2.04688,0 -3.32813,-1.34375 -1.28125,-1.34375 -1.28125,-3.57813 l 0,-0.32812 q 0,-1.48438 0.5625,-2.65625 0.57813,-1.17188 1.59375,-1.82813 1.03125,-0.67187 2.23438,-0.67187 1.95312,0 3.03125,1.29687 1.09375,1.28125 1.09375,3.6875 l 0,0.70313 -6.79688,0 q 0.0312,1.48437 0.85938,2.40625 0.84375,0.90625 2.125,0.90625 0.90625,0 1.53125,-0.35938 0.64062,-0.375 1.10937,-0.98437 l 1.04688,0.8125 q -1.26563,1.9375 -3.78125,1.9375 z m -0.21875,-9 q -1.03125,0 -1.75,0.76562 -0.70313,0.75 -0.85938,2.10938 l 5.01563,0 0,-0.125 q -0.0625,-1.3125 -0.70313,-2.03125 -0.625,-0.71875 -1.70312,-0.71875 z m 7.7901,8.8125 -1.70313,0 0,-14.25 1.70313,0 0,14.25 z" />
  <path
     style="fill:#000000;fill-opacity:0;fill-rule:nonzero"
     inkscape:connector-curvature="0"
     id="path77"
     d="M 597.03194,309.96365 596.05556,197.30227" />
  <path
     style="stroke:#ffffff;stroke-width:1;stroke-linecap:butt;stroke-linejoin:round;stroke-dasharray:4, 3"
     inkscape:connector-curvature="0"
     id="path79"
     d="M 597.03194,309.96365 596.05556,197.30227" />
  <path
     style="fill:#000000;fill-opacity:0;fill-rule:nonzero"
     inkscape:connector-curvature="0"
     id="path81"
     d="m 532.21352,309.25742 130.83466,0 0,41.63776 -130.83466,0 z" />
  <path
     style="fill:#ffffff;fill-rule:nonzero"
     inkscape:connector-curvature="0"
     id="path83"
     d="m 548.71163,333.52115 q 0,-0.70313 -0.53125,-1.07813 -0.51563,-0.39062 -1.82813,-0.67187 -1.29687,-0.28125 -2.0625,-0.67188 -0.76562,-0.39062 -1.14062,-0.92187 -0.35938,-0.54688 -0.35938,-1.28125 0,-1.23438 1.04688,-2.07813 1.04687,-0.85937 2.67187,-0.85937 1.70313,0 2.76563,0.875 1.0625,0.875 1.0625,2.25 l -1.71875,0 q 0,-0.70313 -0.60938,-1.20313 -0.59375,-0.51562 -1.5,-0.51562 -0.9375,0 -1.46875,0.40625 -0.53125,0.40625 -0.53125,1.0625 0,0.625 0.48438,0.9375 0.5,0.3125 1.78125,0.60937 1.29687,0.28125 2.09375,0.6875 0.79687,0.39063 1.17187,0.95313 0.39063,0.5625 0.39063,1.375 0,1.34375 -1.07813,2.15625 -1.07812,0.8125 -2.79687,0.8125 -1.20313,0 -2.125,-0.42188 -0.92188,-0.4375 -1.45313,-1.20312 -0.53125,-0.76563 -0.53125,-1.65625 l 1.71875,0 q 0.0469,0.85937 0.6875,1.375 0.65625,0.5 1.70313,0.5 0.98437,0 1.5625,-0.39063 0.59375,-0.39062 0.59375,-1.04687 z m 7.08838,0.32812 2.48437,-7.70312 1.75,0 -3.59375,10.03125 -1.3125,0 -3.625,-10.03125 1.75,0 2.54688,7.70312 z m 9.89599,2.51563 q -2.04687,0 -3.32812,-1.34375 -1.28125,-1.34375 -1.28125,-3.57813 l 0,-0.32812 q 0,-1.48438 0.5625,-2.65625 0.57812,-1.17188 1.59375,-1.82813 1.03125,-0.67187 2.23437,-0.67187 1.95313,0 3.03125,1.29687 1.09375,1.28125 1.09375,3.6875 l 0,0.70313 -6.79687,0 q 0.0312,1.48437 0.85937,2.40625 0.84375,0.90625 2.125,0.90625 0.90625,0 1.53125,-0.35938 0.64063,-0.375 1.10938,-0.98437 l 1.04687,0.8125 q -1.26562,1.9375 -3.78125,1.9375 z m -0.21875,-9 q -1.03125,0 -1.75,0.76562 -0.70312,0.75 -0.85937,2.10938 l 5.01562,0 0,-0.125 q -0.0625,-1.3125 -0.70312,-2.03125 -0.625,-0.71875 -1.70313,-0.71875 z m 7.55567,-1.21875 0.0625,1.25 q 1.14062,-1.4375 3,-1.4375 3.1875,0 3.20312,3.57812 l 0,6.64063 -1.70312,0 0,-6.64063 q -0.0156,-1.09375 -0.5,-1.60937 -0.48438,-0.51563 -1.51563,-0.51563 -0.84375,0 -1.46875,0.45313 -0.625,0.4375 -0.98437,1.15625 l 0,7.15625 -1.71875,0 0,-10.03125 1.625,0 z m 14.51251,7.375 q 0,-0.70313 -0.53125,-1.07813 -0.51562,-0.39062 -1.82812,-0.67187 -1.29688,-0.28125 -2.0625,-0.67188 -0.76563,-0.39062 -1.14063,-0.92187 -0.35937,-0.54688 -0.35937,-1.28125 0,-1.23438 1.04687,-2.07813 1.04688,-0.85937 2.67188,-0.85937 1.70312,0 2.76562,0.875 1.0625,0.875 1.0625,2.25 l -1.71875,0 q 0,-0.70313 -0.60937,-1.20313 -0.59375,-0.51562 -1.5,-0.51562 -0.9375,0 -1.46875,0.40625 -0.53125,0.40625 -0.53125,1.0625 0,0.625 0.48437,0.9375 0.5,0.3125 1.78125,0.60937 1.29688,0.28125 2.09375,0.6875 0.79688,0.39063 1.17188,0.95313 0.39062,0.5625 0.39062,1.375 0,1.34375 -1.07812,2.15625 -1.07813,0.8125 -2.79688,0.8125 -1.20312,0 -2.125,-0.42188 -0.92187,-0.4375 -1.45312,-1.20312 -0.53125,-0.76563 -0.53125,-1.65625 l 1.71875,0 q 0.0469,0.85937 0.6875,1.375 0.65625,0.5 1.70312,0.5 0.98438,0 1.5625,-0.39063 0.59375,-0.39062 0.59375,-1.04687 z m 6.57275,-1.98438 -1.0625,1.10938 0,3.53125 -1.71875,0 0,-14.25 1.71875,0 0,8.625 0.90625,-1.10938 3.125,-3.29687 2.09375,0 -3.90625,4.1875 4.35938,5.84375 -2.01563,0 -3.5,-4.64063 z m 12.86188,4.64063 q -0.15625,-0.29688 -0.25,-1.0625 -1.1875,1.25 -2.85937,1.25 -1.48438,0 -2.4375,-0.84375 -0.9375,-0.84375 -0.9375,-2.125 0,-1.5625 1.1875,-2.4375 1.1875,-0.875 3.35937,-0.875 l 1.67188,0 0,-0.78125 q 0,-0.90625 -0.54688,-1.4375 -0.53125,-0.53125 -1.57812,-0.53125 -0.92188,0 -1.54688,0.46875 -0.625,0.46875 -0.625,1.125 l -1.71875,0 q 0,-0.75 0.53125,-1.45313 0.53125,-0.70312 1.4375,-1.10937 0.92188,-0.40625 2.01563,-0.40625 1.73437,0 2.71875,0.875 0.98437,0.85937 1.01562,2.375 l 0,4.625 q 0,1.375 0.35938,2.1875 l 0,0.15625 -1.79688,0 z m -2.85937,-1.3125 q 0.8125,0 1.53125,-0.40625 0.73437,-0.42188 1.0625,-1.09375 l 0,-2.0625 -1.35938,0 q -3.14062,0 -3.14062,1.84375 0,0.8125 0.53125,1.26562 0.53125,0.45313 1.375,0.45313 z m 6.85113,0.40625 q 0,-0.4375 0.25,-0.73438 0.26563,-0.29687 0.79688,-0.29687 0.53125,0 0.79687,0.29687 0.28125,0.29688 0.28125,0.73438 0,0.4375 -0.28125,0.73437 -0.26562,0.28125 -0.79687,0.28125 -0.53125,0 -0.79688,-0.28125 -0.25,-0.29687 -0.25,-0.73437 z m 8.14435,-1.60938 2.34375,-7.51562 1.84375,0 -4.04687,11.57812 q -0.9375,2.5 -2.96875,2.5 l -0.32813,-0.0156 -0.64062,-0.125 0,-1.39063 0.46875,0.0312 q 0.85937,0 1.34375,-0.35937 0.5,-0.34375 0.8125,-1.28125 l 0.375,-1.01563 -3.57813,-9.92187 1.875,0 2.5,7.51562 z m 7.40527,2.51563 -1.70312,0 0,-14.25 1.70312,0 0,14.25 z m 6.83991,0.1875 q -2.04688,0 -3.32813,-1.34375 -1.28125,-1.34375 -1.28125,-3.57813 l 0,-0.32812 q 0,-1.48438 0.5625,-2.65625 0.57813,-1.17188 1.59375,-1.82813 1.03125,-0.67187 2.23438,-0.67187 1.95312,0 3.03125,1.29687 1.09375,1.28125 1.09375,3.6875 l 0,0.70313 -6.79688,0 q 0.0312,1.48437 0.85938,2.40625 0.84375,0.90625 2.125,0.90625 0.90625,0 1.53125,-0.35938 0.64062,-0.375 1.10937,-0.98437 l 1.04688,0.8125 q -1.26563,1.9375 -3.78125,1.9375 z m -0.21875,-9 q -1.03125,0 -1.75,0.76562 -0.70313,0.75 -0.85938,2.10938 l 5.01563,0 0,-0.125 q -0.0625,-1.3125 -0.70313,-2.03125 -0.625,-0.71875 -1.70312,-0.71875 z m 5.97754,7.90625 q 0,-0.4375 0.25,-0.73438 0.26562,-0.29687 0.79687,-0.29687 0.53125,0 0.79688,0.29687 0.28125,0.29688 0.28125,0.73438 0,0.4375 -0.28125,0.73437 -0.26563,0.28125 -0.79688,0.28125 -0.53125,0 -0.79687,-0.28125 -0.25,-0.29687 -0.25,-0.73437 z m 5.70691,0.90625 0,-8.71875 -1.57813,0 0,-1.3125 1.57813,0 0,-1.03125 q 0,-1.625 0.85937,-2.5 0.875,-0.875 2.45313,-0.875 0.59375,0 1.17187,0.15625 l -0.0937,1.39062 q -0.4375,-0.0937 -0.92187,-0.0937 -0.84375,0 -1.29688,0.5 -0.45312,0.48438 -0.45312,1.39063 l 0,1.0625 2.14062,0 0,1.3125 -2.14062,0 0,8.71875 -1.71875,0 z m 7.49249,0 -1.70313,0 0,-10.03125 1.70313,0 0,10.03125 z m -1.84375,-12.70313 q 0,-0.42187 0.25,-0.70312 0.25,-0.28125 0.75,-0.28125 0.51562,0 0.76562,0.28125 0.26563,0.28125 0.26563,0.70312 0,0.42188 -0.26563,0.70313 -0.25,0.26562 -0.76562,0.26562 -0.5,0 -0.75,-0.26562 -0.25,-0.28125 -0.25,-0.70313 z" />
  <path
     style="fill:#000000;fill-opacity:0;fill-rule:nonzero"
     inkscape:connector-curvature="0"
     id="path85"
     d="M 630.85448,185.14005 629.8781,72.47864" />
  <path
     style="stroke:#ffffff;stroke-width:1;stroke-linecap:butt;stroke-linejoin:round;stroke-dasharray:4, 3"
     inkscape:connector-curvature="0"
     id="path87"
     d="M 630.85448,185.14005 629.8781,72.47864" />
  <path
     style="fill:#000000;fill-opacity:0;fill-rule:nonzero"
     inkscape:connector-curvature="0"
     id="path89"
     d="m 571.26768,19.2973 118.29919,0 0,41.63779 -118.29919,0 z" />
  <path
     style="fill:#ffffff;fill-rule:nonzero"
     inkscape:connector-curvature="0"
     id="path91"
     d="m 615.41908,43.70165 2.34375,-7.51563 1.84375,0 -4.04688,11.57813 q -0.9375,2.5 -2.96875,2.5 l -0.32812,-0.0156 -0.64063,-0.125 0,-1.39062 0.46875,0.0312 q 0.85938,0 1.34375,-0.35938 0.5,-0.34375 0.8125,-1.28125 l 0.375,-1.01562 -3.57812,-9.92188 1.875,0 2.5,7.51563 z m 7.40521,2.51562 -1.70312,0 0,-14.25 1.70312,0 0,14.25 z m 6.83991,0.1875 q -2.04688,0 -3.32813,-1.34375 -1.28125,-1.34375 -1.28125,-3.57812 l 0,-0.32813 q 0,-1.48437 0.5625,-2.65625 0.57813,-1.17187 1.59375,-1.82812 1.03125,-0.67188 2.23438,-0.67188 1.95312,0 3.03125,1.29688 1.09375,1.28125 1.09375,3.6875 l 0,0.70312 -6.79688,0 q 0.0312,1.48438 0.85938,2.40625 0.84375,0.90625 2.125,0.90625 0.90625,0 1.53125,-0.35937 0.64062,-0.375 1.10937,-0.98438 l 1.04688,0.8125 q -1.26563,1.9375 -3.78125,1.9375 z m -0.21875,-9 q -1.03125,0 -1.75,0.76563 -0.70313,0.75 -0.85938,2.10937 l 5.01563,0 0,-0.125 q -0.0625,-1.3125 -0.70313,-2.03125 -0.625,-0.71875 -1.70312,-0.71875 z m 5.9776,7.90625 q 0,-0.4375 0.25,-0.73437 0.26562,-0.29688 0.79687,-0.29688 0.53125,0 0.79688,0.29688 0.28125,0.29687 0.28125,0.73437 0,0.4375 -0.28125,0.73438 -0.26563,0.28125 -0.79688,0.28125 -0.53125,0 -0.79687,-0.28125 -0.25,-0.29688 -0.25,-0.73438 z m 5.70685,0.90625 0,-8.71875 -1.57813,0 0,-1.3125 1.57813,0 0,-1.03125 q 0,-1.625 0.85937,-2.5 0.875,-0.875 2.45313,-0.875 0.59375,0 1.17187,0.15625 l -0.0937,1.39063 q -0.4375,-0.0937 -0.92187,-0.0937 -0.84375,0 -1.29688,0.5 -0.45312,0.48437 -0.45312,1.39062 l 0,1.0625 2.14062,0 0,1.3125 -2.14062,0 0,8.71875 -1.71875,0 z m 7.49249,0 -1.70313,0 0,-10.03125 1.70313,0 0,10.03125 z m -1.84375,-12.70312 q 0,-0.42188 0.25,-0.70313 0.25,-0.28125 0.75,-0.28125 0.51562,0 0.76562,0.28125 0.26563,0.28125 0.26563,0.70313 0,0.42187 -0.26563,0.70312 -0.25,0.26563 -0.76562,0.26563 -0.5,0 -0.75,-0.26563 -0.25,-0.28125 -0.25,-0.70312 z" />
  <path
     style="fill:#000000;fill-opacity:0;fill-rule:nonzero"
     inkscape:connector-curvature="0"
     id="path93"
     d="M 423.80095,186.08652 422.82457,73.42511" />
  <path
     style="stroke:#ffffff;stroke-width:1;stroke-linecap:butt;stroke-linejoin:round;stroke-dasharray:4, 3"
     inkscape:connector-curvature="0"
     id="path95"
     d="M 423.80095,186.08652 422.82457,73.42511" />
  <path
     style="fill:#000000;fill-opacity:0;fill-rule:nonzero"
     inkscape:connector-curvature="0"
     id="path97"
     d="m 364.2141,20.24378 118.29919,0 0,41.63779 -118.29919,0 z" />
  <path
     style="fill:#ffffff;fill-rule:nonzero"
     inkscape:connector-curvature="0"
     id="path99"
     d="m 404.40588,42.52313 -1.0625,1.10937 0,3.53125 -1.71875,0 0,-14.25 1.71875,0 0,8.625 0.90625,-1.10937 3.125,-3.29688 2.09375,0 -3.90625,4.1875 4.35937,5.84375 -2.01562,0 -3.5,-4.64062 z m 6.20566,-0.46875 q 0,-1.48438 0.57812,-2.65625 0.57813,-1.17188 1.60938,-1.8125 1.04687,-0.64063 2.375,-0.64063 2.04687,0 3.3125,1.42188 1.26562,1.40625 1.26562,3.76562 l 0,0.125 q 0,1.46875 -0.5625,2.64063 -0.5625,1.15625 -1.60937,1.8125 -1.04688,0.64062 -2.39063,0.64062 -2.04687,0 -3.3125,-1.42187 -1.26562,-1.42188 -1.26562,-3.75 l 0,-0.125 z m 1.71875,0.20312 q 0,1.67188 0.78125,2.6875 0.78125,1 2.07812,1 1.29688,0 2.0625,-1.01562 0.78125,-1.03125 0.78125,-2.875 0,-1.65625 -0.78125,-2.67188 -0.78125,-1.03125 -2.07812,-1.03125 -1.28125,0 -2.0625,1.01563 -0.78125,1 -0.78125,2.89062 z m 10.99927,-5.125 0.0625,1.25 q 1.14062,-1.4375 3,-1.4375 3.1875,0 3.20312,3.57813 l 0,6.64062 -1.70312,0 0,-6.64062 q -0.0156,-1.09375 -0.5,-1.60938 -0.48438,-0.51562 -1.51563,-0.51562 -0.84375,0 -1.46875,0.45312 -0.625,0.4375 -0.98437,1.15625 l 0,7.15625 -1.71875,0 0,-10.03125 1.625,0 z m 14.51248,7.375 q 0,-0.70312 -0.53125,-1.07812 -0.51563,-0.39063 -1.82813,-0.67188 -1.29687,-0.28125 -2.0625,-0.67187 -0.76562,-0.39063 -1.14062,-0.92188 -0.35938,-0.54687 -0.35938,-1.28125 0,-1.23437 1.04688,-2.07812 1.04687,-0.85938 2.67187,-0.85938 1.70313,0 2.76563,0.875 1.0625,0.875 1.0625,2.25 l -1.71875,0 q 0,-0.70312 -0.60938,-1.20312 -0.59375,-0.51563 -1.5,-0.51563 -0.9375,0 -1.46875,0.40625 -0.53125,0.40625 -0.53125,1.0625 0,0.625 0.48438,0.9375 0.5,0.3125 1.78125,0.60938 1.29687,0.28125 2.09375,0.6875 0.79687,0.39062 1.17187,0.95312 0.39063,0.5625 0.39063,1.375 0,1.34375 -1.07813,2.15625 -1.07812,0.8125 -2.79687,0.8125 -1.20313,0 -2.125,-0.42187 -0.92188,-0.4375 -1.45313,-1.20313 -0.53125,-0.76562 -0.53125,-1.65625 l 1.71875,0 q 0.0469,0.85938 0.6875,1.375 0.65625,0.5 1.70313,0.5 0.98437,0 1.5625,-0.39062 0.59375,-0.39063 0.59375,-1.04688 z m 6.104,-9.8125 0,2.4375 1.875,0 0,1.3125 -1.875,0 0,6.23438 q 0,0.59375 0.25,0.90625 0.25,0.29687 0.85938,0.29687 0.29687,0 0.8125,-0.10937 l 0,1.39062 q -0.67188,0.1875 -1.3125,0.1875 -1.15625,0 -1.75,-0.6875 -0.57813,-0.70312 -0.57813,-1.98437 l 0,-6.23438 -1.82812,0 0,-1.3125 1.82812,0 0,-2.4375 1.71875,0 z" />
  <path
     style="fill:#000000;fill-opacity:0;fill-rule:nonzero"
     inkscape:connector-curvature="0"
     id="path101"
     d="m 181.87974,192.12241 -23.65355,0" />
  <path
     style="stroke:#ffffff;stroke-width:2;stroke-linecap:butt;stroke-linejoin:round;stroke-dasharray:8, 6"
     inkscape:connector-curvature="0"
     id="path103"
     d="m 181.87974,192.12241 -23.65355,0" />
  <path
     style="fill:#000000;fill-opacity:0;fill-rule:nonzero"
     inkscape:connector-curvature="0"
     id="path105"
     d="m 10.015679,198.19675 115.968501,0 0,69.35437 -115.968501,0 z" />
  <path
     style="fill:#ffffff;fill-rule:nonzero"
     inkscape:connector-curvature="0"
     id="path107"
     d="m 21.734429,223.81992 2.937498,0 0,-9.28125 q 0,-0.40625 0.03125,-0.84375 l -2.437498,2.07812 q -0.09375,0.0781 -0.1875,0.10938 -0.09375,0.0312 -0.1875,0.0312 -0.140625,0 -0.25,-0.0469 -0.109375,-0.0625 -0.171875,-0.15625 l -0.53125,-0.73437 4.046873,-3.5 1.375,0 0,12.34375 2.671875,0 0,1.29687 -7.296873,0 0,-1.29687 z m 13.320631,-4.29688 q -0.765625,0 -1.46875,-0.25 -0.6875,-0.25 -1.203125,-0.75 -0.515625,-0.5 -0.828125,-1.21875 -0.3125,-0.73437 -0.3125,-1.67187 0,-0.90625 0.328125,-1.67188 0.34375,-0.78125 0.9375,-1.35937 0.59375,-0.57813 1.421875,-0.90625 0.828125,-0.34375 1.8125,-0.34375 0.984375,0 1.78125,0.32812 0.796875,0.3125 1.359375,0.90625 0.578125,0.57813 0.875,1.39063 0.3125,0.79687 0.3125,1.78125 0,0.57812 -0.109375,1.10937 -0.109375,0.53125 -0.3125,1.03125 -0.203125,0.5 -0.5,1 -0.28125,0.5 -0.65625,1.03125 l -3.3125,4.78125 q -0.125,0.1875 -0.359375,0.29688 -0.21875,0.10937 -0.515625,0.10937 l -1.5625,0 4.140625,-5.42187 q 0.21875,-0.28125 0.390625,-0.51563 0.1875,-0.25 0.34375,-0.5 -0.515625,0.42188 -1.171875,0.64063 -0.65625,0.20312 -1.390625,0.20312 z m 3.390625,-3.96875 q 0,-0.64062 -0.203125,-1.15625 -0.203125,-0.51562 -0.5625,-0.875 -0.359375,-0.35937 -0.859375,-0.54687 -0.5,-0.20313 -1.09375,-0.20313 -0.625,0 -1.140625,0.20313 -0.515625,0.20312 -0.890625,0.5625 -0.359375,0.35937 -0.5625,0.85937 -0.203125,0.5 -0.203125,1.10938 0,0.64062 0.1875,1.15625 0.1875,0.5 0.53125,0.85937 0.34375,0.34375 0.84375,0.53125 0.5,0.17188 1.125,0.17188 0.671875,0 1.203125,-0.21875 0.53125,-0.21875 0.890625,-0.59375 0.359375,-0.375 0.546875,-0.85938 0.1875,-0.48437 0.1875,-1 z m 7.711258,9.71875 q -1.015625,0 -1.859375,-0.26562 -0.84375,-0.28125 -1.453125,-0.78125 -0.609375,-0.5 -0.953125,-1.21875 -0.328125,-0.71875 -0.328125,-1.60938 0,-1.3125 0.6875,-2.15625 0.6875,-0.85937 1.953125,-1.21875 -1.0625,-0.40625 -1.609375,-1.1875 -0.546875,-0.79687 -0.546875,-1.90625 0,-0.75 0.28125,-1.40625 0.296875,-0.65625 0.84375,-1.14062 0.546875,-0.48438 1.296875,-0.75 0.75,-0.28125 1.6875,-0.28125 0.921875,0 1.671875,0.28125 0.765625,0.26562 1.3125,0.75 0.546875,0.48437 0.828125,1.14062 0.296875,0.65625 0.296875,1.40625 0,1.10938 -0.546875,1.90625 -0.546875,0.78125 -1.609375,1.1875 1.265625,0.35938 1.953125,1.21875 0.6875,0.84375 0.6875,2.15625 0,0.89063 -0.34375,1.60938 -0.328125,0.71875 -0.9375,1.21875 -0.609375,0.5 -1.453125,0.78125 -0.84375,0.26562 -1.859375,0.26562 z m 0,-1.35937 q 0.671875,0 1.1875,-0.17188 0.53125,-0.1875 0.890625,-0.51562 0.375,-0.34375 0.5625,-0.8125 0.203125,-0.48438 0.203125,-1.04688 0,-0.70312 -0.234375,-1.20312 -0.234375,-0.5 -0.625,-0.8125 -0.390625,-0.3125 -0.90625,-0.45313 -0.515625,-0.15625 -1.078125,-0.15625 -0.5625,0 -1.078125,0.15625 -0.515625,0.14063 -0.90625,0.45313 -0.390625,0.3125 -0.625,0.8125 -0.234375,0.5 -0.234375,1.20312 0,0.5625 0.1875,1.04688 0.203125,0.46875 0.5625,0.8125 0.375,0.32812 0.890625,0.51562 0.53125,0.17188 1.203125,0.17188 z m 0,-6.53125 q 0.671875,0 1.140625,-0.20313 0.46875,-0.20312 0.75,-0.53125 0.296875,-0.34375 0.4375,-0.78125 0.140625,-0.4375 0.140625,-0.90625 0,-0.46875 -0.171875,-0.89062 -0.15625,-0.42188 -0.46875,-0.73438 -0.296875,-0.3125 -0.765625,-0.48437 -0.453125,-0.1875 -1.0625,-0.1875 -0.609375,0 -1.078125,0.1875 -0.453125,0.17187 -0.765625,0.48437 -0.296875,0.3125 -0.453125,0.73438 -0.15625,0.42187 -0.15625,0.89062 0,0.46875 0.125,0.90625 0.140625,0.4375 0.421875,0.78125 0.296875,0.32813 0.765625,0.53125 0.46875,0.20313 1.140625,0.20313 z m 11.211262,-6.03125 q 0.859375,0 1.59375,0.25 0.734375,0.25 1.25,0.70312 0.53125,0.45313 0.828125,1.10938 0.296875,0.64062 0.296875,1.42187 0,0.64063 -0.171875,1.15625 -0.15625,0.51563 -0.46875,0.90625 -0.3125,0.375 -0.75,0.64063 -0.4375,0.26562 -0.96875,0.42187 1.328125,0.35938 2,1.1875 0.671875,0.8125 0.671875,2.0625 0,0.9375 -0.359375,1.6875 -0.359375,0.75 -0.984375,1.28125 -0.609375,0.53125 -1.4375,0.8125 -0.8125,0.28125 -1.75,0.28125 -1.09375,0 -1.859375,-0.26562 -0.765629,-0.28125 -1.296879,-0.75 -0.53125,-0.48438 -0.875,-1.125 -0.34375,-0.65625 -0.578125,-1.42188 l 0.71875,-0.29687 q 0.203125,-0.0937 0.390625,-0.0937 0.203125,0 0.34375,0.0937 0.140625,0.0781 0.21875,0.25 0.01563,0.0312 0.03125,0.0781 0.03125,0.0469 0.04687,0.0937 0.140625,0.26563 0.328125,0.625 0.187504,0.34375 0.500004,0.65625 0.328125,0.29688 0.8125,0.5 0.484375,0.20313 1.1875,0.20313 0.71875,0 1.25,-0.21875 0.546875,-0.23438 0.890625,-0.60938 0.359375,-0.375 0.53125,-0.82812 0.1875,-0.45313 0.1875,-0.90625 0,-0.54688 -0.15625,-1 -0.140625,-0.45313 -0.53125,-0.78125 -0.375,-0.34375 -1.0625,-0.53125 -0.671875,-0.1875 -1.734375,-0.1875 l 0,-1.23438 q 0.875,0 1.484375,-0.1875 0.609375,-0.1875 1,-0.5 0.390625,-0.3125 0.5625,-0.75 0.171875,-0.4375 0.171875,-0.96875 0,-0.57812 -0.1875,-1.01562 -0.171875,-0.4375 -0.5,-0.71875 -0.328125,-0.29688 -0.765625,-0.4375 -0.4375,-0.14063 -0.953125,-0.14063 -0.515625,0 -0.953125,0.15625 -0.4375,0.14063 -0.78125,0.42188 -0.328125,0.26562 -0.5625,0.64062 -0.21875,0.375 -0.343754,0.8125 -0.0625,0.28125 -0.21875,0.40625 -0.15625,0.125 -0.390625,0.125 -0.04687,0 -0.109375,0 -0.04687,-0.0156 -0.109375,-0.0312 l -0.890625,-0.14062 q 0.140625,-0.9375 0.515625,-1.65625 0.390625,-0.71875 0.96875,-1.20313 0.578129,-0.48437 1.328129,-0.73437 0.765625,-0.25 1.640625,-0.25 z" />
  <path
     style="fill:#000000;fill-opacity:0;fill-rule:nonzero"
     inkscape:connector-curvature="0"
     id="path109"
     d="m 42.748497,192.57185 110.645683,0" />
  <path
     style="stroke:#ffffff;stroke-width:2;stroke-linecap:butt;stroke-linejoin:round"
     inkscape:connector-curvature="0"
     id="path111"
     d="m 42.748497,192.57185 110.645683,0" />
  <path
     style="fill:#000000;fill-opacity:0;fill-rule:nonzero"
     inkscape:connector-curvature="0"
     id="path113"
     d="M 59.995173,182.19675 59.018794,69.53537" />
  <path
     style="stroke:#ffffff;stroke-width:1;stroke-linecap:butt;stroke-linejoin:round;stroke-dasharray:4, 3"
     inkscape:connector-curvature="0"
     id="path115"
     d="M 59.995173,182.19675 59.018794,69.53537" />
  <path
     style="fill:#000000;fill-opacity:0;fill-rule:nonzero"
     inkscape:connector-curvature="0"
     id="path117"
     d="m -2.0345053e-5,20.24378 118.299220345053,0 0,41.63779 -118.299220345053,0 z" />
  <path
     style="fill:#ffffff;fill-rule:nonzero"
     inkscape:connector-curvature="0"
     id="path119"
     d="m 34.940291,41.14813 q -2.296875,-0.67188 -3.34375,-1.625 -1.03125,-0.95313 -1.03125,-2.375 0,-1.59375 1.265625,-2.625 1.28125,-1.04688 3.328125,-1.04688 1.390625,0 2.46875,0.53125 1.09375,0.53125 1.6875,1.48438 0.609375,0.95312 0.609375,2.0625 l -1.796875,0 q 0,-1.21875 -0.78125,-1.92188 -0.765625,-0.70312 -2.1875,-0.70312 -1.328125,0 -2.0625,0.59375 -0.734375,0.57812 -0.734375,1.60937 0,0.8125 0.703125,1.39063 0.703125,0.5625 2.375,1.04687 1.6875,0.46875 2.640625,1.04688 0.953125,0.5625 1.40625,1.32812 0.46875,0.75 0.46875,1.78125 0,1.64063 -1.28125,2.64063 -1.28125,0.98437 -3.421875,0.98437 -1.390625,0 -2.609375,-0.53125 -1.203125,-0.53125 -1.859375,-1.45312 -0.640625,-0.9375 -0.640625,-2.125 l 1.78125,0 q 0,1.23437 0.90625,1.95312 0.90625,0.70313 2.421875,0.70313 1.40625,0 2.15625,-0.57813 0.75,-0.57812 0.75,-1.5625 0,-1 -0.703125,-1.54687 -0.6875,-0.54688 -2.515625,-1.0625 z m 11.568039,3.65625 3.859375,-11.15625 1.9375,0 -5,13.51562 -1.578125,0 -5,-13.51562 1.9375,0 3.84375,11.15625 z m 10.697803,-2.67188 -4.531254,0 0,-1.40625 4.531254,0 0,1.40625 z m 3.896866,-2.5625 1.28125,0 q 1.21875,-0.0156 1.906243,-0.625 0.703125,-0.625 0.703125,-1.6875 0,-2.375 -2.359368,-2.375 -1.125,0 -1.796875,0.64063 -0.65625,0.625 -0.65625,1.67187 l -1.703125,0 q 0,-1.59375 1.171875,-2.65625 1.171875,-1.0625 2.984375,-1.0625 1.906243,0 2.984368,1.01563 1.09375,1 1.09375,2.79687 0,0.89063 -0.578125,1.71875 -0.5625,0.8125 -1.546875,1.21875 1.109375,0.35938 1.71875,1.1875 0.609375,0.8125 0.609375,1.98438 0,1.8125 -1.1875,2.89062 -1.1875,1.0625 -3.093743,1.0625 -1.90625,0 -3.09375,-1.03125 -1.1875,-1.03125 -1.1875,-2.71875 l 1.71875,0 q 0,1.0625 0.6875,1.70313 0.703125,0.64062 1.875,0.64062 1.25,0 1.906243,-0.64062 0.65625,-0.65625 0.65625,-1.875 0,-1.17188 -0.734375,-1.79688 -0.718743,-0.64062 -2.078118,-0.65625 l -1.28125,0 0,-1.40625 z m 13.616539,7.59375 -1.734375,0 0,-11.4375 -3.453125,1.26563 0,-1.5625 4.921875,-1.84375 0.265625,0 0,13.57812 z m 13.022797,-9.98437 q 0,1.01562 -0.53125,1.8125 -0.53125,0.78125 -1.4375,1.21875 1.046875,0.45312 1.65625,1.32812 0.625,0.875 0.625,1.98438 0,1.75 -1.1875,2.79687 -1.171875,1.03125 -3.109375,1.03125 -1.9375,0 -3.109375,-1.04687 -1.171875,-1.04688 -1.171875,-2.78125 0,-1.09375 0.59375,-1.96875 0.59375,-0.89063 1.65625,-1.34375 -0.90625,-0.45313 -1.421875,-1.23438 -0.515625,-0.79687 -0.515625,-1.79687 0,-1.70313 1.09375,-2.70313 1.09375,-1 2.875,-1 1.78125,0 2.875,1 1.109375,1 1.109375,2.70313 z m -1.40625,6.29687 q 0,-1.125 -0.71875,-1.84375 -0.71875,-0.71875 -1.875,-0.71875 -1.15625,0 -1.859375,0.71875 -0.703125,0.70313 -0.703125,1.85938 0,1.14062 0.6875,1.79687 0.6875,0.65625 1.890625,0.65625 1.21875,0 1.890625,-0.65625 0.6875,-0.67187 0.6875,-1.8125 z M 83.75796,34.8825 q -1,0 -1.625,0.625 -0.625,0.625 -0.625,1.70313 0,1.03125 0.609375,1.67187 0.625,0.625 1.640625,0.625 1.03125,0 1.640625,-0.625 0.625,-0.64062 0.625,-1.67187 0,-1.03125 -0.640625,-1.67188 -0.640625,-0.65625 -1.625,-0.65625 z" />
</svg>
